%TF.GenerationSoftware,Altium Limited,Altium Designer,23.7.1 (13)*%
G04 Layer_Color=128*
%FSLAX45Y45*%
%MOMM*%
%TF.SameCoordinates,8B45DB0F-F0D4-485E-9900-1B50B3984352*%
%TF.FilePolarity,Positive*%
%TF.FileFunction,Drillmap*%
%TF.Part,Single*%
G01*
G75*
%TA.AperFunction,NonConductor*%
%ADD29C,0.12700*%
D29*
X2622550Y12138660D02*
X2782570D01*
X2702560Y12058650D02*
Y12218670D01*
X3991000Y12433300D02*
X4067200D01*
X4029100Y12395200D02*
Y12471400D01*
X4191000Y12433300D02*
X4267200D01*
X4229100Y12395200D02*
Y12471400D01*
X3399790Y12037060D02*
X3559810D01*
X3479800Y11957050D02*
Y12117070D01*
X3018790Y12534900D02*
X3178810D01*
X3098800Y12454890D02*
Y12614910D01*
X3630301Y10511600D02*
X3710300D01*
X3670301Y10471600D02*
Y10551600D01*
X3630300Y10011600D02*
X3710299D01*
X3670299Y9971600D02*
Y10051600D01*
X3630300Y10773600D02*
X3710299D01*
X3670299Y10733600D02*
Y10813600D01*
X3630301Y11273600D02*
X3710300D01*
X3670301Y11233600D02*
Y11313600D01*
X4260300Y9301480D02*
X4350300D01*
X4305300Y9256480D02*
Y9346480D01*
X4006300Y9301480D02*
X4096300D01*
X4051300Y9256480D02*
Y9346480D01*
X3752300Y9301480D02*
X3842300D01*
X3797300Y9256480D02*
Y9346480D01*
X3498300Y9301480D02*
X3588300D01*
X3543300Y9256480D02*
Y9346480D01*
X4974000Y9740900D02*
X5059000D01*
X5016500Y9698400D02*
Y9783400D01*
X3958000Y9740900D02*
X4043000D01*
X4000500Y9698400D02*
Y9783400D01*
X4684400Y10274300D02*
X4764400D01*
X4724400Y10234300D02*
Y10314300D01*
X4684400Y10528300D02*
X4764400D01*
X4724400Y10488300D02*
Y10568300D01*
X4709800Y11823700D02*
X4789800D01*
X4749800Y11783700D02*
Y11863700D01*
X4709800Y12077700D02*
X4789800D01*
X4749800Y12037700D02*
Y12117700D01*
X2611800Y9766300D02*
X2696800D01*
X2654300Y9723800D02*
Y9808800D01*
X3627800Y9766300D02*
X3712800D01*
X3670300Y9723800D02*
Y9808800D01*
X2605900Y9347200D02*
X2905900D01*
X2755900Y9197200D02*
Y9497200D01*
X4803000Y9347200D02*
X5103000D01*
X4953000Y9197200D02*
Y9497200D01*
X4803000Y11239500D02*
X5103000D01*
X4953000Y11089500D02*
Y11389500D01*
X4529500Y10795000D02*
X4614500D01*
X4572000Y10752500D02*
Y10837500D01*
X4529500Y11557000D02*
X4614500D01*
X4572000Y11514500D02*
Y11599500D01*
X4049400Y11925300D02*
X4129400D01*
X4089400Y11885300D02*
Y11965300D01*
X3795400Y11925300D02*
X3875400D01*
X3835400Y11885300D02*
Y11965300D01*
X4275500Y11468100D02*
X4360500D01*
X4318000Y11425600D02*
Y11510600D01*
X3513500Y11468100D02*
X3598500D01*
X3556000Y11425600D02*
Y11510600D01*
X4191800Y10998200D02*
X4291800D01*
X4241800Y10948200D02*
Y11048200D01*
X4191800Y10744200D02*
X4291800D01*
X4241800Y10694200D02*
Y10794200D01*
X4191800Y10490200D02*
X4291800D01*
X4241800Y10440200D02*
Y10540200D01*
X2647200Y10261600D02*
X2732200D01*
X2689700Y10219100D02*
Y10304100D01*
X2647200Y11277600D02*
X2732200D01*
X2689700Y11235100D02*
Y11320100D01*
X3048800Y10515600D02*
X3148800D01*
X3098800Y10465600D02*
Y10565600D01*
X3048800Y10769600D02*
X3148800D01*
X3098800Y10719600D02*
Y10819600D01*
X3048800Y11023600D02*
X3148800D01*
X3098800Y10973600D02*
Y11073600D01*
X5037500Y12369800D02*
X5122500D01*
X5080000Y12327300D02*
Y12412300D01*
X5037500Y11607800D02*
X5122500D01*
X5080000Y11565300D02*
Y11650300D01*
%TF.MD5,67d8908b376cec8974048535cfc6df66*%
M02*
