G04*
G04 #@! TF.GenerationSoftware,Altium Limited,Altium Designer,23.7.1 (13)*
G04*
G04 Layer_Color=32896*
%FSLAX25Y25*%
%MOIN*%
G70*
G04*
G04 #@! TF.SameCoordinates,91BF953A-AACC-4089-9385-47863D4E8686*
G04*
G04*
G04 #@! TF.FilePolarity,Positive*
G04*
G01*
G75*
%ADD13C,0.02000*%
%ADD42C,0.00200*%
D13*
X179163Y490000D02*
G03*
X179163Y490000I-1500J0D01*
G01*
D42*
X193449Y430300D02*
X194878D01*
X195163Y430205D01*
X195354Y430014D01*
X195449Y429729D01*
Y429538D01*
X195354Y429253D01*
X195163Y429062D01*
X194878Y428967D01*
X193449D01*
Y428415D02*
X195449D01*
X193449D02*
X195449Y427082D01*
X193449D02*
X195449D01*
X193449Y426529D02*
X195449D01*
X193449Y426110D02*
X195449Y425349D01*
X193449Y424587D02*
X195449Y425349D01*
X193449Y423092D02*
Y424330D01*
X195449D01*
Y423092D01*
X194402Y424330D02*
Y423568D01*
X193449Y422759D02*
X195449D01*
X193449D02*
Y421902D01*
X193545Y421616D01*
X193640Y421521D01*
X193830Y421426D01*
X194021D01*
X194211Y421521D01*
X194306Y421616D01*
X194402Y421902D01*
Y422759D01*
Y422092D02*
X195449Y421426D01*
X193735Y419645D02*
X193545Y419836D01*
X193449Y420121D01*
Y420502D01*
X193545Y420788D01*
X193735Y420978D01*
X193926D01*
X194116Y420883D01*
X194211Y420788D01*
X194306Y420597D01*
X194497Y420026D01*
X194592Y419836D01*
X194687Y419740D01*
X194878Y419645D01*
X195163D01*
X195354Y419836D01*
X195449Y420121D01*
Y420502D01*
X195354Y420788D01*
X195163Y420978D01*
X193449Y419198D02*
X195449D01*
X193449Y418112D02*
X195449D01*
X193449Y418779D02*
Y417446D01*
Y417208D02*
X194402Y416446D01*
X195449D01*
X193449Y415684D02*
X194402Y416446D01*
X193449Y413285D02*
X193545Y413475D01*
X193735Y413665D01*
X193926Y413761D01*
X194211Y413856D01*
X194687D01*
X194973Y413761D01*
X195163Y413665D01*
X195354Y413475D01*
X195449Y413285D01*
Y412904D01*
X195354Y412713D01*
X195163Y412523D01*
X194973Y412428D01*
X194687Y412332D01*
X194211D01*
X193926Y412428D01*
X193735Y412523D01*
X193545Y412713D01*
X193449Y412904D01*
Y413285D01*
Y411866D02*
X195449D01*
X193449D02*
Y410628D01*
X194402Y411866D02*
Y411104D01*
X193449Y408828D02*
X195449D01*
X193449D02*
X195449Y408067D01*
X193449Y407305D02*
X195449Y408067D01*
X193449Y407305D02*
X195449D01*
X193449Y406734D02*
X195449D01*
X193926Y404886D02*
X193735Y404982D01*
X193545Y405172D01*
X193449Y405363D01*
Y405743D01*
X193545Y405934D01*
X193735Y406124D01*
X193926Y406219D01*
X194211Y406315D01*
X194687D01*
X194973Y406219D01*
X195163Y406124D01*
X195354Y405934D01*
X195449Y405743D01*
Y405363D01*
X195354Y405172D01*
X195163Y404982D01*
X194973Y404886D01*
X193449Y404325D02*
X195449D01*
X193449Y402992D02*
X195449D01*
X194402Y404325D02*
Y402992D01*
X193449Y402439D02*
X195449D01*
X193926Y400592D02*
X193735Y400687D01*
X193545Y400878D01*
X193449Y401068D01*
Y401449D01*
X193545Y401640D01*
X193735Y401830D01*
X193926Y401925D01*
X194211Y402020D01*
X194687D01*
X194973Y401925D01*
X195163Y401830D01*
X195354Y401640D01*
X195449Y401449D01*
Y401068D01*
X195354Y400878D01*
X195163Y400687D01*
X194973Y400592D01*
X194687D01*
Y401068D02*
Y400592D01*
X195449Y398612D02*
X193449Y399373D01*
X195449Y400135D01*
X194782Y399849D02*
Y398897D01*
X193449Y398145D02*
X195449D01*
X193449D02*
X195449Y396812D01*
X193449D02*
X195449D01*
X196805Y428872D02*
X196615Y428967D01*
X196424Y429157D01*
X196329Y429348D01*
Y429729D01*
X196424Y429919D01*
X196615Y430110D01*
X196805Y430205D01*
X197091Y430300D01*
X197567D01*
X197852Y430205D01*
X198043Y430110D01*
X198233Y429919D01*
X198328Y429729D01*
Y429348D01*
X198233Y429157D01*
X198043Y428967D01*
X197852Y428872D01*
X196329Y427739D02*
X196424Y427929D01*
X196615Y428120D01*
X196805Y428215D01*
X197091Y428310D01*
X197567D01*
X197852Y428215D01*
X198043Y428120D01*
X198233Y427929D01*
X198328Y427739D01*
Y427358D01*
X198233Y427167D01*
X198043Y426977D01*
X197852Y426882D01*
X197567Y426787D01*
X197091D01*
X196805Y426882D01*
X196615Y426977D01*
X196424Y427167D01*
X196329Y427358D01*
Y427739D01*
Y426320D02*
X198328D01*
Y425177D01*
X196329Y424958D02*
X198328D01*
Y423816D01*
X196329Y422359D02*
Y423597D01*
X198328D01*
Y422359D01*
X197281Y423597D02*
Y422835D01*
X196805Y420597D02*
X196615Y420692D01*
X196424Y420883D01*
X196329Y421073D01*
Y421454D01*
X196424Y421645D01*
X196615Y421835D01*
X196805Y421930D01*
X197091Y422026D01*
X197567D01*
X197852Y421930D01*
X198043Y421835D01*
X198233Y421645D01*
X198328Y421454D01*
Y421073D01*
X198233Y420883D01*
X198043Y420692D01*
X197852Y420597D01*
X197567D01*
Y421073D02*
Y420597D01*
X196329Y418902D02*
Y420140D01*
X198328D01*
Y418902D01*
X197281Y420140D02*
Y419379D01*
X196329Y416427D02*
X196424Y416617D01*
X196615Y416808D01*
X196805Y416903D01*
X197091Y416998D01*
X197567D01*
X197852Y416903D01*
X198043Y416808D01*
X198233Y416617D01*
X198328Y416427D01*
Y416046D01*
X198233Y415856D01*
X198043Y415665D01*
X197852Y415570D01*
X197567Y415475D01*
X197091D01*
X196805Y415570D01*
X196615Y415665D01*
X196424Y415856D01*
X196329Y416046D01*
Y416427D01*
Y415008D02*
X198328D01*
X196329D02*
Y413770D01*
X197281Y415008D02*
Y414246D01*
X196329Y410733D02*
Y411971D01*
X198328D01*
Y410733D01*
X197281Y411971D02*
Y411209D01*
X196329Y410399D02*
X198328D01*
X196329D02*
X198328Y409066D01*
X196329D02*
X198328D01*
X196805Y407086D02*
X196615Y407181D01*
X196424Y407372D01*
X196329Y407562D01*
Y407943D01*
X196424Y408133D01*
X196615Y408324D01*
X196805Y408419D01*
X197091Y408514D01*
X197567D01*
X197852Y408419D01*
X198043Y408324D01*
X198233Y408133D01*
X198328Y407943D01*
Y407562D01*
X198233Y407372D01*
X198043Y407181D01*
X197852Y407086D01*
X197567D01*
Y407562D02*
Y407086D01*
X196329Y406629D02*
X198328D01*
X196329Y406210D02*
X198328D01*
X196329D02*
X198328Y404877D01*
X196329D02*
X198328D01*
X196329Y403087D02*
Y404325D01*
X198328D01*
Y403087D01*
X197281Y404325D02*
Y403563D01*
X196329Y401516D02*
Y402753D01*
X198328D01*
Y401516D01*
X197281Y402753D02*
Y401992D01*
X196329Y401183D02*
X198328D01*
X196329D02*
Y400325D01*
X196424Y400040D01*
X196519Y399945D01*
X196710Y399849D01*
X196900D01*
X197091Y399945D01*
X197186Y400040D01*
X197281Y400325D01*
Y401183D01*
Y400516D02*
X198328Y399849D01*
X196329Y399402D02*
X198328D01*
X196329Y398983D02*
X198328D01*
X196329D02*
X198328Y397650D01*
X196329D02*
X198328D01*
X196805Y395669D02*
X196615Y395765D01*
X196424Y395955D01*
X196329Y396145D01*
Y396526D01*
X196424Y396717D01*
X196615Y396907D01*
X196805Y397002D01*
X197091Y397098D01*
X197567D01*
X197852Y397002D01*
X198043Y396907D01*
X198233Y396717D01*
X198328Y396526D01*
Y396145D01*
X198233Y395955D01*
X198043Y395765D01*
X197852Y395669D01*
X197567D01*
Y396145D02*
Y395669D01*
X200256Y430300D02*
Y429443D01*
X200161Y429157D01*
X200065Y429062D01*
X199875Y428967D01*
X199589D01*
X199399Y429062D01*
X199304Y429157D01*
X199208Y429443D01*
Y430300D01*
X201208D01*
X199208Y428519D02*
X201208D01*
X199208D02*
Y427853D01*
X199304Y427567D01*
X199494Y427377D01*
X199685Y427282D01*
X199970Y427186D01*
X200446D01*
X200732Y427282D01*
X200922Y427377D01*
X201113Y427567D01*
X201208Y427853D01*
Y428519D01*
X199208Y426739D02*
X201208D01*
X199208D02*
X201208Y425977D01*
X199208Y425215D02*
X201208Y425977D01*
X199208Y425215D02*
X201208D01*
X199685Y424549D02*
X199589D01*
X199399Y424454D01*
X199304Y424358D01*
X199208Y424168D01*
Y423787D01*
X199304Y423597D01*
X199399Y423501D01*
X199589Y423406D01*
X199780D01*
X199970Y423501D01*
X200256Y423692D01*
X201208Y424644D01*
Y423311D01*
X200351Y422863D02*
Y421150D01*
X199208Y419893D02*
X201208D01*
X199208Y420559D02*
Y419226D01*
Y418988D02*
X201208D01*
X199208Y417655D02*
X201208D01*
X200161Y418988D02*
Y417655D01*
X200351Y417103D02*
Y415389D01*
X199589Y414799D02*
X199494Y414608D01*
X199208Y414323D01*
X201208D01*
X202754Y430300D02*
X204087D01*
X203326D02*
X203040Y430205D01*
X202850Y430014D01*
X202754Y429824D01*
Y429538D01*
X203326Y429357D02*
Y428215D01*
X203135D01*
X202945Y428310D01*
X202850Y428405D01*
X202754Y428596D01*
Y428881D01*
X202850Y429072D01*
X203040Y429262D01*
X203326Y429357D01*
X203516D01*
X203802Y429262D01*
X203992Y429072D01*
X204087Y428881D01*
Y428596D01*
X203992Y428405D01*
X203802Y428215D01*
X202754Y427786D02*
X204087Y427215D01*
X202754Y426644D02*
X204087Y427215D01*
X203897Y426225D02*
X203992Y426320D01*
X204087Y426225D01*
X203992Y426129D01*
X203897Y426225D01*
X202088Y423549D02*
X202183Y423835D01*
X202469Y424025D01*
X202945Y424120D01*
X203231D01*
X203707Y424025D01*
X203992Y423835D01*
X204087Y423549D01*
Y423359D01*
X203992Y423073D01*
X203707Y422883D01*
X203231Y422787D01*
X202945D01*
X202469Y422883D01*
X202183Y423073D01*
X202088Y423359D01*
Y423549D01*
Y421197D02*
Y422149D01*
X202945Y422245D01*
X202850Y422149D01*
X202754Y421864D01*
Y421578D01*
X202850Y421292D01*
X203040Y421102D01*
X203326Y421007D01*
X203516D01*
X203802Y421102D01*
X203992Y421292D01*
X204087Y421578D01*
Y421864D01*
X203992Y422149D01*
X203897Y422245D01*
X203707Y422340D01*
X204373Y420559D02*
X202088Y419226D01*
Y418902D02*
Y417855D01*
X202850Y418426D01*
Y418141D01*
X202945Y417950D01*
X203040Y417855D01*
X203326Y417760D01*
X203516D01*
X203802Y417855D01*
X203992Y418046D01*
X204087Y418331D01*
Y418617D01*
X203992Y418902D01*
X203897Y418998D01*
X203707Y419093D01*
X202088Y416741D02*
X202183Y417027D01*
X202469Y417217D01*
X202945Y417312D01*
X203231D01*
X203707Y417217D01*
X203992Y417027D01*
X204087Y416741D01*
Y416551D01*
X203992Y416265D01*
X203707Y416075D01*
X203231Y415979D01*
X202945D01*
X202469Y416075D01*
X202183Y416265D01*
X202088Y416551D01*
Y416741D01*
X204373Y415532D02*
X202088Y414199D01*
X202564Y413970D02*
X202469D01*
X202278Y413875D01*
X202183Y413780D01*
X202088Y413589D01*
Y413208D01*
X202183Y413018D01*
X202278Y412923D01*
X202469Y412828D01*
X202659D01*
X202850Y412923D01*
X203135Y413113D01*
X204087Y414065D01*
Y412732D01*
X202088Y411714D02*
X202183Y411999D01*
X202469Y412190D01*
X202945Y412285D01*
X203231D01*
X203707Y412190D01*
X203992Y411999D01*
X204087Y411714D01*
Y411523D01*
X203992Y411237D01*
X203707Y411047D01*
X203231Y410952D01*
X202945D01*
X202469Y411047D01*
X202183Y411237D01*
X202088Y411523D01*
Y411714D01*
X202564Y410409D02*
X202469D01*
X202278Y410314D01*
X202183Y410219D01*
X202088Y410028D01*
Y409647D01*
X202183Y409457D01*
X202278Y409362D01*
X202469Y409266D01*
X202659D01*
X202850Y409362D01*
X203135Y409552D01*
X204087Y410504D01*
Y409171D01*
X202088Y407771D02*
X203421Y408724D01*
Y407295D01*
X202088Y407771D02*
X204087D01*
X205634Y430300D02*
X207633D01*
X205634Y428967D02*
X207633D01*
X206586Y430300D02*
Y428967D01*
X206872Y428415D02*
Y427272D01*
X206681D01*
X206491Y427367D01*
X206396Y427462D01*
X206300Y427653D01*
Y427939D01*
X206396Y428129D01*
X206586Y428320D01*
X206872Y428415D01*
X207062D01*
X207348Y428320D01*
X207538Y428129D01*
X207633Y427939D01*
Y427653D01*
X207538Y427462D01*
X207348Y427272D01*
X205634Y426844D02*
X207633D01*
X205634Y426425D02*
X207633D01*
X206300Y425530D02*
X206396Y425720D01*
X206586Y425911D01*
X206872Y426006D01*
X207062D01*
X207348Y425911D01*
X207538Y425720D01*
X207633Y425530D01*
Y425244D01*
X207538Y425054D01*
X207348Y424863D01*
X207062Y424768D01*
X206872D01*
X206586Y424863D01*
X206396Y425054D01*
X206300Y425244D01*
Y425530D01*
X205634Y421997D02*
Y422187D01*
X205729Y422378D01*
X206015Y422473D01*
X207633D01*
X206300Y422759D02*
Y422092D01*
Y421711D02*
X207633D01*
X206872D02*
X206586Y421616D01*
X206396Y421426D01*
X206300Y421235D01*
Y420950D01*
Y420293D02*
X206396Y420483D01*
X206586Y420674D01*
X206872Y420769D01*
X207062D01*
X207348Y420674D01*
X207538Y420483D01*
X207633Y420293D01*
Y420007D01*
X207538Y419816D01*
X207348Y419626D01*
X207062Y419531D01*
X206872D01*
X206586Y419626D01*
X206396Y419816D01*
X206300Y420007D01*
Y420293D01*
Y419093D02*
X207633D01*
X206681D02*
X206396Y418807D01*
X206300Y418617D01*
Y418331D01*
X206396Y418141D01*
X206681Y418046D01*
X207633D01*
X206681D02*
X206396Y417760D01*
X206300Y417569D01*
Y417284D01*
X206396Y417093D01*
X206681Y416998D01*
X207633D01*
Y413275D02*
X205634Y414037D01*
X207633Y414799D01*
X206967Y414513D02*
Y413561D01*
X206300Y412809D02*
X207633D01*
X206681D02*
X206396Y412523D01*
X206300Y412332D01*
Y412047D01*
X206396Y411856D01*
X206681Y411761D01*
X207633D01*
X206300Y411237D02*
X207633D01*
X206681D02*
X206396Y410952D01*
X206300Y410761D01*
Y410476D01*
X206396Y410285D01*
X206681Y410190D01*
X207633D01*
Y406572D02*
X205634Y407334D01*
X207633Y408095D01*
X206967Y407810D02*
Y406857D01*
X206300Y406105D02*
X207633D01*
X206872D02*
X206586Y406010D01*
X206396Y405820D01*
X206300Y405629D01*
Y405343D01*
X205634Y405162D02*
X207633D01*
X206586D02*
X206396Y404972D01*
X206300Y404782D01*
Y404496D01*
X206396Y404306D01*
X206586Y404115D01*
X206872Y404020D01*
X207062D01*
X207348Y404115D01*
X207538Y404306D01*
X207633Y404496D01*
Y404782D01*
X207538Y404972D01*
X207348Y405162D01*
X206300Y403115D02*
X206396Y403306D01*
X206586Y403496D01*
X206872Y403591D01*
X207062D01*
X207348Y403496D01*
X207538Y403306D01*
X207633Y403115D01*
Y402830D01*
X207538Y402639D01*
X207348Y402449D01*
X207062Y402354D01*
X206872D01*
X206586Y402449D01*
X206396Y402639D01*
X206300Y402830D01*
Y403115D01*
Y401916D02*
X207633D01*
X206872D02*
X206586Y401820D01*
X206396Y401630D01*
X206300Y401440D01*
Y401154D01*
Y399307D02*
X206396Y399402D01*
X206491Y399307D01*
X206396Y399211D01*
X206300Y399307D01*
X207443D02*
X207538Y399402D01*
X207633Y399307D01*
X207538Y399211D01*
X207443Y399307D01*
X205253Y398773D02*
X205444Y398583D01*
X205729Y398393D01*
X206110Y398202D01*
X206586Y398107D01*
X206967D01*
X207443Y398202D01*
X207824Y398393D01*
X208110Y398583D01*
X208300Y398773D01*
X205444Y398583D02*
X205824Y398393D01*
X206110Y398297D01*
X206586Y398202D01*
X206967D01*
X207443Y398297D01*
X207729Y398393D01*
X208110Y398583D01*
X205500Y498900D02*
X205900D01*
X205700D01*
Y497900D01*
X205900Y497700D01*
X206100D01*
X206300Y497900D01*
X205100Y498900D02*
Y497700D01*
X204301D01*
X203101Y498700D02*
X203301Y498900D01*
X203701D01*
X203901Y498700D01*
Y497900D01*
X203701Y497700D01*
X203301D01*
X203101Y497900D01*
X201901Y498900D02*
X202301D01*
X202101D01*
Y497900D01*
X202301Y497700D01*
X202501D01*
X202701Y497900D01*
X201502Y498900D02*
Y497700D01*
X200702D01*
X199502Y498700D02*
X199702Y498900D01*
X200102D01*
X200302Y498700D01*
Y497900D01*
X200102Y497700D01*
X199702D01*
X199502Y497900D01*
X198303Y498900D02*
X198703D01*
X198503D01*
Y497900D01*
X198703Y497700D01*
X198902D01*
X199102Y497900D01*
X197903Y498900D02*
Y497700D01*
X197103D01*
X195903Y498700D02*
X196103Y498900D01*
X196503D01*
X196703Y498700D01*
Y497900D01*
X196503Y497700D01*
X196103D01*
X195903Y497900D01*
X194704Y498900D02*
X195104D01*
X194904D01*
Y497900D01*
X195104Y497700D01*
X195304D01*
X195503Y497900D01*
X194304Y498900D02*
Y497700D01*
X193504D01*
X192305Y498700D02*
X192505Y498900D01*
X192904D01*
X193104Y498700D01*
Y497900D01*
X192904Y497700D01*
X192505D01*
X192305Y497900D01*
M02*
