G04*
G04 #@! TF.GenerationSoftware,Altium Limited,Altium Designer,23.7.1 (13)*
G04*
G04 Layer_Physical_Order=1*
G04 Layer_Color=255*
%FSLAX25Y25*%
%MOIN*%
G70*
G04*
G04 #@! TF.SameCoordinates,91BF953A-AACC-4089-9385-47863D4E8686*
G04*
G04*
G04 #@! TF.FilePolarity,Positive*
G04*
G01*
G75*
%ADD27C,0.05000*%
%ADD28C,0.05000*%
%ADD29C,0.10000*%
%ADD30C,0.02500*%
%ADD31C,0.08000*%
%ADD32R,0.05315X0.05315*%
%ADD33C,0.05315*%
%ADD34R,0.05906X0.05906*%
%ADD35C,0.05906*%
%ADD36C,0.05512*%
%ADD37C,0.06299*%
%ADD38C,0.08000*%
%ADD39C,0.13780*%
%ADD40C,0.06299*%
%ADD41R,0.06299X0.06299*%
G36*
X209500Y358000D02*
X98500D01*
Y501000D01*
X209500D01*
Y358000D01*
D02*
G37*
%LPC*%
G36*
X167500Y493490D02*
Y490500D01*
X170490D01*
X170262Y491351D01*
X169801Y492149D01*
X169149Y492801D01*
X168351Y493261D01*
X167500Y493490D01*
D02*
G37*
G36*
X170490Y489500D02*
X167500D01*
Y486511D01*
X168351Y486738D01*
X169149Y487199D01*
X169801Y487851D01*
X170262Y488649D01*
X170490Y489500D01*
D02*
G37*
G36*
X122000Y498543D02*
X121672Y498500D01*
X121342D01*
X121022Y498414D01*
X120695Y498371D01*
X120389Y498245D01*
X120070Y498159D01*
X119784Y497994D01*
X119478Y497867D01*
X119216Y497666D01*
X118930Y497501D01*
X118696Y497267D01*
X118434Y497066D01*
X118233Y496804D01*
X117999Y496570D01*
X117834Y496284D01*
X117632Y496022D01*
X117506Y495716D01*
X117341Y495430D01*
X117255Y495111D01*
X117129Y494805D01*
X117086Y494478D01*
X117000Y494158D01*
Y493828D01*
X116957Y493500D01*
X117000Y493172D01*
Y492842D01*
X117086Y492522D01*
X117129Y492195D01*
X117255Y491889D01*
X117341Y491570D01*
X117506Y491284D01*
X117632Y490978D01*
X117834Y490716D01*
X117999Y490430D01*
X118233Y490196D01*
X118434Y489934D01*
X121934Y486434D01*
X122978Y485633D01*
X124195Y485129D01*
X125500Y484957D01*
X159126D01*
X160431Y485129D01*
X161648Y485633D01*
X162692Y486434D01*
X163494Y487478D01*
X163662Y487885D01*
X164161Y487918D01*
X164199Y487851D01*
X164851Y487199D01*
X165649Y486738D01*
X166500Y486511D01*
Y490000D01*
Y493490D01*
X165649Y493261D01*
X164851Y492801D01*
X164199Y492149D01*
X164161Y492082D01*
X163662Y492115D01*
X163494Y492522D01*
X162692Y493566D01*
X161648Y494368D01*
X160431Y494871D01*
X159126Y495043D01*
X127589D01*
X125566Y497066D01*
X125304Y497267D01*
X125070Y497501D01*
X124784Y497666D01*
X124522Y497867D01*
X124216Y497994D01*
X123930Y498159D01*
X123611Y498245D01*
X123305Y498371D01*
X122978Y498414D01*
X122658Y498500D01*
X122328D01*
X122000Y498543D01*
D02*
G37*
G36*
X197494Y490256D02*
X196505D01*
X195550Y490000D01*
X194694Y489505D01*
X193994Y488806D01*
X193500Y487950D01*
X193244Y486995D01*
Y486005D01*
X193353Y485598D01*
X187405Y479650D01*
X186454D01*
X185398Y479367D01*
X184452Y478821D01*
X183679Y478048D01*
X183133Y477102D01*
X182850Y476046D01*
Y474954D01*
X183133Y473898D01*
X183679Y472952D01*
X184452Y472180D01*
X185398Y471633D01*
X186454Y471350D01*
X187546D01*
X188602Y471633D01*
X189548Y472180D01*
X190321Y472952D01*
X190867Y473898D01*
X191150Y474954D01*
Y476046D01*
X190968Y476724D01*
X196988Y482744D01*
X197494D01*
X198450Y483000D01*
X199306Y483495D01*
X200006Y484194D01*
X200500Y485050D01*
X200756Y486005D01*
Y486995D01*
X200500Y487950D01*
X200006Y488806D01*
X199306Y489505D01*
X198450Y490000D01*
X197494Y490256D01*
D02*
G37*
G36*
X106400Y483929D02*
X105224Y483813D01*
X104093Y483470D01*
X103050Y482913D01*
X102137Y482163D01*
X101387Y481250D01*
X100830Y480207D01*
X100487Y479076D01*
X100371Y477900D01*
Y444506D01*
X100487Y443330D01*
X100830Y442199D01*
X101387Y441157D01*
X102137Y440243D01*
X103050Y439493D01*
X104093Y438936D01*
X105224Y438593D01*
X106400Y438477D01*
X107576Y438593D01*
X108707Y438936D01*
X109749Y439493D01*
X110663Y440243D01*
X111413Y441157D01*
X111970Y442199D01*
X112313Y443330D01*
X112429Y444506D01*
Y467973D01*
X112891Y468165D01*
X115028Y466028D01*
X115772Y465531D01*
X116650Y465356D01*
X141267D01*
X142145Y465531D01*
X142889Y466028D01*
X144067Y467206D01*
X147533D01*
X147679Y466952D01*
X148452Y466180D01*
X149398Y465633D01*
X150454Y465350D01*
X151546D01*
X152602Y465633D01*
X153548Y466180D01*
X154321Y466952D01*
X154867Y467898D01*
X155150Y468954D01*
Y470046D01*
X154867Y471102D01*
X154321Y472048D01*
X153548Y472821D01*
X152602Y473367D01*
X151546Y473650D01*
X150454D01*
X149398Y473367D01*
X148452Y472821D01*
X147679Y472048D01*
X147533Y471794D01*
X143117D01*
X142239Y471620D01*
X141906Y471397D01*
X141531Y471748D01*
X141659Y471970D01*
X142000Y473242D01*
Y474558D01*
X141659Y475830D01*
X141001Y476970D01*
X140070Y477901D01*
X138930Y478559D01*
X137658Y478900D01*
X136342D01*
X135070Y478559D01*
X133930Y477901D01*
X132999Y476970D01*
X132341Y475830D01*
X132000Y474558D01*
Y473242D01*
X132341Y471970D01*
X132999Y470830D01*
X133423Y470406D01*
X133232Y469944D01*
X117600D01*
X112429Y475115D01*
Y477900D01*
X112313Y479076D01*
X111970Y480207D01*
X111413Y481250D01*
X110663Y482163D01*
X109749Y482913D01*
X108707Y483470D01*
X107576Y483813D01*
X106400Y483929D01*
D02*
G37*
G36*
X187546Y469650D02*
X186454D01*
X185398Y469367D01*
X184452Y468820D01*
X183679Y468048D01*
X183133Y467102D01*
X182850Y466046D01*
Y464954D01*
X183133Y463898D01*
X183679Y462952D01*
X184452Y462180D01*
X185398Y461633D01*
X186454Y461350D01*
X187546D01*
X188602Y461633D01*
X189548Y462180D01*
X190321Y462952D01*
X190867Y463898D01*
X191150Y464954D01*
Y466046D01*
X190867Y467102D01*
X190321Y468048D01*
X189548Y468820D01*
X188602Y469367D01*
X187546Y469650D01*
D02*
G37*
G36*
X197500Y460254D02*
Y457000D01*
X200754D01*
X200500Y457950D01*
X200006Y458806D01*
X199306Y459506D01*
X198450Y460000D01*
X197500Y460254D01*
D02*
G37*
G36*
X196500D02*
X195550Y460000D01*
X194694Y459506D01*
X193994Y458806D01*
X193500Y457950D01*
X193246Y457000D01*
X196500D01*
Y460254D01*
D02*
G37*
G36*
X180500Y458754D02*
Y455500D01*
X183754D01*
X183500Y456450D01*
X183005Y457306D01*
X182306Y458006D01*
X181450Y458500D01*
X180500Y458754D01*
D02*
G37*
G36*
X179500D02*
X178550Y458500D01*
X177694Y458006D01*
X176995Y457306D01*
X176500Y456450D01*
X176246Y455500D01*
X179500D01*
Y458754D01*
D02*
G37*
G36*
X200754Y456000D02*
X197500D01*
Y452746D01*
X198450Y453000D01*
X199306Y453495D01*
X200006Y454194D01*
X200500Y455050D01*
X200754Y456000D01*
D02*
G37*
G36*
X196500D02*
X193246D01*
X193500Y455050D01*
X193994Y454194D01*
X194694Y453495D01*
X195550Y453000D01*
X196500Y452746D01*
Y456000D01*
D02*
G37*
G36*
X140500Y455254D02*
Y452000D01*
X143754D01*
X143500Y452950D01*
X143006Y453806D01*
X142306Y454505D01*
X141450Y455000D01*
X140500Y455254D01*
D02*
G37*
G36*
X139500D02*
X138550Y455000D01*
X137694Y454505D01*
X136995Y453806D01*
X136500Y452950D01*
X136246Y452000D01*
X139500D01*
Y455254D01*
D02*
G37*
G36*
X183754Y454500D02*
X180500D01*
Y451246D01*
X181450Y451500D01*
X182306Y451995D01*
X183005Y452694D01*
X183500Y453550D01*
X183754Y454500D01*
D02*
G37*
G36*
X179500D02*
X176246D01*
X176500Y453550D01*
X176995Y452694D01*
X177694Y451995D01*
X178550Y451500D01*
X179500Y451246D01*
Y454500D01*
D02*
G37*
G36*
X143754Y451000D02*
X140500D01*
Y447746D01*
X141450Y448000D01*
X142306Y448494D01*
X143006Y449194D01*
X143500Y450050D01*
X143754Y451000D01*
D02*
G37*
G36*
X139500D02*
X136246D01*
X136500Y450050D01*
X136995Y449194D01*
X137694Y448494D01*
X138550Y448000D01*
X139500Y447746D01*
Y451000D01*
D02*
G37*
G36*
X161546Y473650D02*
X160454D01*
X159398Y473367D01*
X158452Y472821D01*
X157679Y472048D01*
X157133Y471102D01*
X156850Y470046D01*
Y468954D01*
X157133Y467898D01*
X157679Y466952D01*
X158452Y466180D01*
X159398Y465633D01*
X160454Y465350D01*
X161546D01*
X161829Y465426D01*
X167706Y459550D01*
Y454513D01*
X167694Y454505D01*
X166995Y453806D01*
X166500Y452950D01*
X166244Y451995D01*
Y451006D01*
X166500Y450050D01*
X166995Y449194D01*
X167694Y448494D01*
X168550Y448000D01*
X169506Y447744D01*
X170494D01*
X171450Y448000D01*
X172306Y448494D01*
X173005Y449194D01*
X173500Y450050D01*
X173756Y451006D01*
Y451995D01*
X173500Y452950D01*
X173005Y453806D01*
X172306Y454505D01*
X172294Y454513D01*
Y460500D01*
X172119Y461378D01*
X171622Y462122D01*
X165074Y468671D01*
X165150Y468954D01*
Y470046D01*
X164867Y471102D01*
X164321Y472048D01*
X163548Y472821D01*
X162602Y473367D01*
X161546Y473650D01*
D02*
G37*
G36*
X145000Y447495D02*
Y444343D01*
X148152D01*
X147908Y445254D01*
X147427Y446088D01*
X146746Y446769D01*
X145912Y447251D01*
X145000Y447495D01*
D02*
G37*
G36*
X144000D02*
X143088Y447251D01*
X142254Y446769D01*
X141573Y446088D01*
X141092Y445254D01*
X140848Y444343D01*
X144000D01*
Y447495D01*
D02*
G37*
G36*
X195777Y450390D02*
X195500D01*
Y443000D01*
X202890D01*
Y443277D01*
X202587Y444801D01*
X201992Y446237D01*
X201128Y447529D01*
X200029Y448628D01*
X198737Y449492D01*
X197301Y450087D01*
X195777Y450390D01*
D02*
G37*
G36*
X194500D02*
X194223D01*
X192699Y450087D01*
X191263Y449492D01*
X189971Y448628D01*
X188872Y447529D01*
X188008Y446237D01*
X187413Y444801D01*
X187110Y443277D01*
Y443000D01*
X194500D01*
Y450390D01*
D02*
G37*
G36*
X148152Y443342D02*
X145000D01*
Y440190D01*
X145912Y440434D01*
X146746Y440916D01*
X147427Y441597D01*
X147908Y442431D01*
X148152Y443342D01*
D02*
G37*
G36*
X144000D02*
X140848D01*
X141092Y442431D01*
X141573Y441597D01*
X142254Y440916D01*
X143088Y440434D01*
X144000Y440190D01*
Y443342D01*
D02*
G37*
G36*
X202890Y442000D02*
X195500D01*
Y434610D01*
X195777D01*
X197301Y434913D01*
X198737Y435508D01*
X200029Y436372D01*
X201128Y437471D01*
X201992Y438763D01*
X202587Y440199D01*
X202890Y441723D01*
Y442000D01*
D02*
G37*
G36*
X194500D02*
X187110D01*
Y441723D01*
X187413Y440199D01*
X188008Y438763D01*
X188872Y437471D01*
X189971Y436372D01*
X191263Y435508D01*
X192699Y434913D01*
X194223Y434610D01*
X194500D01*
Y442000D01*
D02*
G37*
G36*
X126150Y438150D02*
X122500D01*
Y434500D01*
X126150D01*
Y438150D01*
D02*
G37*
G36*
X121500D02*
X117850D01*
Y434500D01*
X121500D01*
Y438150D01*
D02*
G37*
G36*
X126150Y433500D02*
X122500D01*
Y429850D01*
X126150D01*
Y433500D01*
D02*
G37*
G36*
X121500D02*
X117850D01*
Y429850D01*
X121500D01*
Y433500D01*
D02*
G37*
G36*
X167546Y437150D02*
X166454D01*
X165398Y436867D01*
X164452Y436320D01*
X163680Y435548D01*
X163133Y434602D01*
X162850Y433546D01*
Y432454D01*
X163133Y431398D01*
X163680Y430452D01*
X164452Y429679D01*
X165398Y429133D01*
X165568Y429088D01*
X167044Y427611D01*
X166853Y427150D01*
X166454D01*
X165398Y426867D01*
X164452Y426321D01*
X163680Y425548D01*
X163133Y424602D01*
X162850Y423546D01*
Y423500D01*
X167000D01*
Y422500D01*
X162850D01*
Y422454D01*
X163133Y421398D01*
X163680Y420452D01*
X164452Y419679D01*
X164713Y419529D01*
X164579Y419029D01*
X163826D01*
X154434Y428421D01*
X153521Y429170D01*
X152479Y429728D01*
X151347Y430071D01*
X150171Y430187D01*
X135097D01*
X135097Y430187D01*
X133921Y430071D01*
X132790Y429728D01*
X131747Y429170D01*
X130834Y428421D01*
X126611Y424198D01*
X126150Y424390D01*
Y424546D01*
X125867Y425602D01*
X125320Y426548D01*
X124548Y427320D01*
X123602Y427867D01*
X122546Y428150D01*
X121454D01*
X120398Y427867D01*
X119452Y427320D01*
X118679Y426548D01*
X118133Y425602D01*
X117850Y424546D01*
Y423454D01*
X118133Y422398D01*
X118679Y421452D01*
X119452Y420680D01*
X120201Y420247D01*
X120139Y419705D01*
X119693Y419570D01*
X118650Y419013D01*
X117737Y418263D01*
X117737Y418263D01*
X109503Y410029D01*
X105894D01*
X104718Y409913D01*
X103586Y409570D01*
X102544Y409013D01*
X101630Y408263D01*
X100881Y407349D01*
X100324Y406307D01*
X99980Y405176D01*
X99865Y404000D01*
X99980Y402824D01*
X100324Y401693D01*
X100881Y400651D01*
X101630Y399737D01*
X102544Y398987D01*
X103586Y398430D01*
X104718Y398087D01*
X105894Y397971D01*
X112000D01*
X113176Y398087D01*
X114307Y398430D01*
X115349Y398987D01*
X116263Y399737D01*
X124497Y407971D01*
X124940D01*
X126116Y408087D01*
X127247Y408430D01*
X128289Y408987D01*
X129203Y409737D01*
X137594Y418128D01*
X147314D01*
X147400Y418000D01*
X147133Y417500D01*
X140842D01*
Y410185D01*
X148158D01*
Y416938D01*
X148658Y417145D01*
X154569Y411233D01*
X148748Y405412D01*
X148187Y404680D01*
X147834Y403829D01*
X147714Y402915D01*
Y396823D01*
X147214Y396616D01*
X146746Y397084D01*
X145912Y397566D01*
X145000Y397810D01*
Y394158D01*
Y390505D01*
X145912Y390749D01*
X146746Y391231D01*
X147214Y391699D01*
X147714Y391492D01*
Y387305D01*
X147214Y387098D01*
X146806Y387506D01*
X145950Y388000D01*
X144994Y388256D01*
X144006D01*
X143050Y388000D01*
X142194Y387506D01*
X141495Y386806D01*
X141000Y385950D01*
X140744Y384995D01*
Y384005D01*
X141000Y383050D01*
X141495Y382194D01*
X142194Y381494D01*
X143050Y381000D01*
X144006Y380744D01*
X144994D01*
X145495Y380878D01*
X145674Y380793D01*
X145970Y380488D01*
Y367991D01*
X145817Y367726D01*
X145547Y366720D01*
Y365680D01*
X145817Y364674D01*
X146337Y363773D01*
X147073Y363037D01*
X147974Y362517D01*
X148980Y362247D01*
X150020D01*
X151026Y362517D01*
X151927Y363037D01*
X152663Y363773D01*
X153183Y364674D01*
X153453Y365680D01*
Y366720D01*
X153183Y367726D01*
X153030Y367991D01*
Y379190D01*
X153740Y379901D01*
X154301Y380632D01*
X154350Y380750D01*
X154841Y380848D01*
X155194Y380494D01*
X156050Y380000D01*
X157006Y379744D01*
X157994D01*
X158950Y380000D01*
X159806Y380494D01*
X160505Y381194D01*
X161000Y382050D01*
X161256Y383005D01*
Y383995D01*
X161000Y384950D01*
X160505Y385806D01*
X159806Y386506D01*
X158950Y387000D01*
X157994Y387256D01*
X157006D01*
X156050Y387000D01*
X155274Y386552D01*
X154774Y386718D01*
Y401453D01*
X160385Y407064D01*
X161329Y406971D01*
X167000D01*
X168176Y407087D01*
X169307Y407430D01*
X170350Y407987D01*
X171263Y408737D01*
X172013Y409651D01*
X172570Y410693D01*
X172913Y411824D01*
X173029Y413000D01*
X172993Y413370D01*
X173445Y413584D01*
X175820Y411208D01*
Y405160D01*
Y400150D01*
X175941Y399236D01*
X176293Y398384D01*
X176854Y397653D01*
X188504Y386004D01*
X189235Y385443D01*
X190086Y385090D01*
X191000Y384970D01*
X193872D01*
Y384471D01*
X193744Y383995D01*
Y383005D01*
X194000Y382050D01*
X194494Y381194D01*
X195194Y380494D01*
X196050Y380000D01*
X197005Y379744D01*
X197994D01*
X198950Y380000D01*
X199806Y380494D01*
X200505Y381194D01*
X201000Y382050D01*
X201256Y383005D01*
Y383995D01*
X201000Y384950D01*
X200932Y385067D01*
Y387098D01*
X200812Y388012D01*
X200459Y388863D01*
X199898Y389594D01*
X198496Y390996D01*
X197765Y391557D01*
X196914Y391910D01*
X196000Y392030D01*
X192462D01*
X184369Y400123D01*
X184628Y400572D01*
X185454Y400350D01*
X186546D01*
X187602Y400633D01*
X188548Y401180D01*
X189321Y401952D01*
X189867Y402898D01*
X190150Y403954D01*
Y405046D01*
X189867Y406102D01*
X189321Y407048D01*
X188548Y407821D01*
X187602Y408367D01*
X186546Y408650D01*
X185454D01*
X184398Y408367D01*
X183452Y407821D01*
X183343Y407711D01*
X182881Y407902D01*
Y411098D01*
X183343Y411289D01*
X183452Y411179D01*
X184398Y410633D01*
X185454Y410350D01*
X186546D01*
X187602Y410633D01*
X188548Y411179D01*
X189321Y411952D01*
X189867Y412898D01*
X190150Y413954D01*
Y415046D01*
X189867Y416102D01*
X189321Y417048D01*
X188548Y417821D01*
X187602Y418367D01*
X186546Y418650D01*
X185454D01*
X185171Y418574D01*
X182870Y420874D01*
Y422559D01*
X183005Y422694D01*
X183500Y423550D01*
X183756Y424506D01*
Y425494D01*
X183500Y426450D01*
X183005Y427306D01*
X182306Y428006D01*
X181450Y428500D01*
X180494Y428756D01*
X179506D01*
X178550Y428500D01*
X177694Y428006D01*
X177347Y427659D01*
X177082Y427664D01*
X176736Y427755D01*
X176240Y428401D01*
X171150Y433491D01*
Y433546D01*
X170867Y434602D01*
X170320Y435548D01*
X169548Y436320D01*
X168602Y436867D01*
X167546Y437150D01*
D02*
G37*
G36*
X144000Y397810D02*
X143088Y397566D01*
X142254Y397084D01*
X141573Y396403D01*
X141092Y395569D01*
X140848Y394657D01*
X144000D01*
Y397810D01*
D02*
G37*
G36*
Y393657D02*
X140848D01*
X141092Y392746D01*
X141573Y391912D01*
X142254Y391231D01*
X143088Y390749D01*
X144000Y390505D01*
Y393657D01*
D02*
G37*
G36*
X104994Y388256D02*
X104006D01*
X103050Y388000D01*
X102194Y387506D01*
X101495Y386806D01*
X101000Y385950D01*
X100744Y384995D01*
Y384005D01*
X101000Y383050D01*
X101495Y382194D01*
X102194Y381494D01*
X103050Y381000D01*
X104006Y380744D01*
X104994D01*
X105950Y381000D01*
X106806Y381494D01*
X107506Y382194D01*
X108000Y383050D01*
X108256Y384005D01*
Y384995D01*
X108000Y385950D01*
X107506Y386806D01*
X106806Y387506D01*
X105950Y388000D01*
X104994Y388256D01*
D02*
G37*
G36*
X195777Y375890D02*
X195500D01*
Y368500D01*
X202890D01*
Y368777D01*
X202587Y370301D01*
X201992Y371737D01*
X201128Y373029D01*
X200029Y374128D01*
X198737Y374992D01*
X197301Y375587D01*
X195777Y375890D01*
D02*
G37*
G36*
X194500D02*
X194223D01*
X192699Y375587D01*
X191263Y374992D01*
X189971Y374128D01*
X188872Y373029D01*
X188008Y371737D01*
X187413Y370301D01*
X187110Y368777D01*
Y368500D01*
X194500D01*
Y375890D01*
D02*
G37*
G36*
X109277D02*
X109000D01*
Y368500D01*
X116390D01*
Y368777D01*
X116087Y370301D01*
X115492Y371737D01*
X114628Y373029D01*
X113529Y374128D01*
X112237Y374992D01*
X110801Y375587D01*
X109277Y375890D01*
D02*
G37*
G36*
X108000D02*
X107723D01*
X106199Y375587D01*
X104763Y374992D01*
X103471Y374128D01*
X102372Y373029D01*
X101508Y371737D01*
X100913Y370301D01*
X100610Y368777D01*
Y368500D01*
X108000D01*
Y375890D01*
D02*
G37*
G36*
X140020Y370153D02*
X140000D01*
Y366700D01*
X143453D01*
Y366720D01*
X143183Y367726D01*
X142663Y368627D01*
X141927Y369363D01*
X141026Y369883D01*
X140020Y370153D01*
D02*
G37*
G36*
X139000D02*
X138980D01*
X137974Y369883D01*
X137073Y369363D01*
X136337Y368627D01*
X135817Y367726D01*
X135547Y366720D01*
Y366700D01*
X139000D01*
Y370153D01*
D02*
G37*
G36*
X173453D02*
X165547D01*
Y362247D01*
X173453D01*
Y370153D01*
D02*
G37*
G36*
X160020D02*
X158980D01*
X157974Y369883D01*
X157073Y369363D01*
X156337Y368627D01*
X155817Y367726D01*
X155547Y366720D01*
Y365680D01*
X155817Y364674D01*
X156337Y363773D01*
X157073Y363037D01*
X157974Y362517D01*
X158980Y362247D01*
X160020D01*
X161026Y362517D01*
X161927Y363037D01*
X162663Y363773D01*
X163183Y364674D01*
X163453Y365680D01*
Y366720D01*
X163183Y367726D01*
X162663Y368627D01*
X161927Y369363D01*
X161026Y369883D01*
X160020Y370153D01*
D02*
G37*
G36*
X143453Y365700D02*
X140000D01*
Y362247D01*
X140020D01*
X141026Y362517D01*
X141927Y363037D01*
X142663Y363773D01*
X143183Y364674D01*
X143453Y365680D01*
Y365700D01*
D02*
G37*
G36*
X139000D02*
X135547D01*
Y365680D01*
X135817Y364674D01*
X136337Y363773D01*
X137073Y363037D01*
X137974Y362517D01*
X138980Y362247D01*
X139000D01*
Y365700D01*
D02*
G37*
G36*
X202890Y367500D02*
X195500D01*
Y360110D01*
X195777D01*
X197301Y360413D01*
X198737Y361008D01*
X200029Y361872D01*
X201128Y362971D01*
X201992Y364263D01*
X202587Y365699D01*
X202890Y367223D01*
Y367500D01*
D02*
G37*
G36*
X194500D02*
X187110D01*
Y367223D01*
X187413Y365699D01*
X188008Y364263D01*
X188872Y362971D01*
X189971Y361872D01*
X191263Y361008D01*
X192699Y360413D01*
X194223Y360110D01*
X194500D01*
Y367500D01*
D02*
G37*
G36*
X116390D02*
X109000D01*
Y360110D01*
X109277D01*
X110801Y360413D01*
X112237Y361008D01*
X113529Y361872D01*
X114628Y362971D01*
X115492Y364263D01*
X116087Y365699D01*
X116390Y367223D01*
Y367500D01*
D02*
G37*
G36*
X108000D02*
X100610D01*
Y367223D01*
X100913Y365699D01*
X101508Y364263D01*
X102372Y362971D01*
X103471Y361872D01*
X104763Y361008D01*
X106199Y360413D01*
X107723Y360110D01*
X108000D01*
Y367500D01*
D02*
G37*
%LPD*%
D27*
X159126Y490000D02*
D03*
X167000D02*
D03*
D28*
X197402Y383598D02*
Y387098D01*
X196000Y388500D02*
X197402Y387098D01*
X191000Y388500D02*
X196000D01*
X179350Y400150D02*
X191000Y388500D01*
X149500Y366200D02*
Y380653D01*
X151244Y382397D01*
Y402915D01*
X161329Y413000D01*
X179350Y400150D02*
Y405160D01*
X197402Y383598D02*
X197500Y383500D01*
X179350Y405160D02*
Y412670D01*
X173744Y418277D02*
X179350Y412670D01*
X173744Y418277D02*
Y425904D01*
X167000Y432648D02*
X173744Y425904D01*
X167000Y432648D02*
Y433000D01*
D29*
X105894Y404000D02*
X112000D01*
X122000Y414000D01*
X124940D01*
X135097Y424157D01*
X144500D01*
X161329Y413000D02*
X167000D01*
X150171Y424157D02*
X161329Y413000D01*
X144500Y424157D02*
X150171D01*
X106400Y444506D02*
Y477900D01*
D30*
X180010Y404500D02*
X186000D01*
X179350Y405160D02*
X180010Y404500D01*
X180576Y419924D02*
X186000Y414500D01*
X180576Y419924D02*
Y424424D01*
X180000Y425000D02*
X180576Y424424D01*
X187000Y475500D02*
Y476000D01*
X197000Y486000D01*
Y486500D01*
X161000Y469500D02*
X170000Y460500D01*
Y451500D02*
Y460500D01*
X143117Y469500D02*
X151000D01*
X141267Y467650D02*
X143117Y469500D01*
X116650Y467650D02*
X141267D01*
X106400Y477900D02*
X116650Y467650D01*
D31*
X125500Y490000D02*
X159126D01*
X122000Y493500D02*
X125500Y490000D01*
D32*
X144500Y413842D02*
D03*
X144500Y424157D02*
D03*
D33*
Y394158D02*
D03*
X144500Y443843D02*
D03*
D34*
X169500Y366200D02*
D03*
D35*
X159500D02*
D03*
X149500D02*
D03*
X139500D02*
D03*
D36*
X197500Y383500D02*
D03*
X157500D02*
D03*
X104500Y384500D02*
D03*
X144500D02*
D03*
X180000Y425000D02*
D03*
Y455000D02*
D03*
X170000Y451500D02*
D03*
X140000D02*
D03*
X105894Y404000D02*
D03*
Y444000D02*
D03*
X197000Y486500D02*
D03*
Y456500D02*
D03*
D37*
X186000Y404500D02*
D03*
Y414500D02*
D03*
X187000Y465500D02*
D03*
Y475500D02*
D03*
X161000Y469500D02*
D03*
X151000D02*
D03*
D38*
X122000Y493500D02*
D03*
X137000Y473900D02*
D03*
X106400Y477900D02*
D03*
D39*
X108500Y368000D02*
D03*
X195000D02*
D03*
Y442500D02*
D03*
D40*
X167000Y433000D02*
D03*
Y423000D02*
D03*
X122000Y414000D02*
D03*
Y424000D02*
D03*
D41*
X167000Y413000D02*
D03*
X122000Y434000D02*
D03*
M02*
