G04*
G04 #@! TF.GenerationSoftware,Altium Limited,Altium Designer,23.7.1 (13)*
G04*
G04 Layer_Color=16711935*
%FSLAX25Y25*%
%MOIN*%
G70*
G04*
G04 #@! TF.SameCoordinates,91BF953A-AACC-4089-9385-47863D4E8686*
G04*
G04*
G04 #@! TF.FilePolarity,Negative*
G04*
G01*
G75*
%ADD17R,0.06115X0.06115*%
%ADD18C,0.06115*%
%ADD19R,0.06706X0.06706*%
%ADD20C,0.06706*%
%ADD21C,0.06312*%
%ADD22C,0.07099*%
%ADD23C,0.08800*%
%ADD24C,0.14580*%
%ADD25C,0.07099*%
%ADD26R,0.07099X0.07099*%
%ADD27C,0.05000*%
D17*
X144500Y413842D02*
D03*
X144500Y424157D02*
D03*
D18*
Y394158D02*
D03*
X144500Y443843D02*
D03*
D19*
X169500Y366200D02*
D03*
D20*
X159500D02*
D03*
X149500D02*
D03*
X139500D02*
D03*
D21*
X197500Y383500D02*
D03*
X157500D02*
D03*
X104500Y384500D02*
D03*
X144500D02*
D03*
X180000Y425000D02*
D03*
Y455000D02*
D03*
X170000Y451500D02*
D03*
X140000D02*
D03*
X105894Y404000D02*
D03*
Y444000D02*
D03*
X197000Y486500D02*
D03*
Y456500D02*
D03*
D22*
X186000Y404500D02*
D03*
Y414500D02*
D03*
X187000Y465500D02*
D03*
Y475500D02*
D03*
X161000Y469500D02*
D03*
X151000D02*
D03*
D23*
X122000Y493500D02*
D03*
X137000Y473900D02*
D03*
X106400Y477900D02*
D03*
D24*
X108500Y368000D02*
D03*
X195000D02*
D03*
Y442500D02*
D03*
D25*
X167000Y433000D02*
D03*
Y423000D02*
D03*
X122000Y414000D02*
D03*
Y424000D02*
D03*
D26*
X167000Y413000D02*
D03*
X122000Y434000D02*
D03*
D27*
X159126Y490000D02*
D03*
X167000D02*
D03*
M02*
