M48
;Layer_Color=9474304
;FILE_FORMAT=2:4
INCH,LZ
;TYPE=PLATED
T01F00S00C0.0300
T02F00S00C0.0315
T03F00S00C0.0335
T04F00S00C0.0354
T05F00S00C0.0394
T06F00S00C0.0630
T07F00S00C0.1181
%
T01
X015913Y049
X0167
T02
X01445Y039416
X01445Y041384
X01445Y042416
X01445Y044384
X0187Y04655
X0186Y04145
Y04045
X0187Y04755
X0161Y04695
X0151
T03
X01045Y03845
X010589Y0404
Y0444
X014Y04515
X01445Y03845
X01575Y03835
X01975
X018Y0425
Y0455
X017Y04515
X0197Y04565
Y04865
T04
X01395Y03662
X01495
X01595
X01695
T05
X0122Y0414
Y0424
Y0434
X0167Y0433
Y0423
Y0413
T06
X01064Y04779
X0122Y04935
X0137Y04739
T07
X01085Y0368
X0195
Y04425
M30
