%TF.GenerationSoftware,Altium Limited,Altium Designer,23.7.1 (13)*%
G04 Layer_Physical_Order=1*
G04 Layer_Color=255*
%FSLAX45Y45*%
%MOMM*%
%TF.SameCoordinates,8B45DB0F-F0D4-485E-9900-1B50B3984352*%
%TF.FilePolarity,Positive*%
%TF.FileFunction,Copper,L1,Top,Signal*%
%TF.Part,Single*%
G01*
G75*
%TA.AperFunction,Conductor*%
%ADD10C,1.27000*%
%ADD11C,0.63500*%
%ADD12C,2.54000*%
%TA.AperFunction,ComponentPad*%
%ADD13C,2.03200*%
%ADD14C,1.27000*%
%ADD15R,1.35000X1.35000*%
%ADD16C,1.35000*%
%ADD17R,1.50000X1.50000*%
%ADD18C,1.50000*%
%ADD19C,1.40000*%
%ADD20C,1.60000*%
%TA.AperFunction,ViaPad*%
%ADD21C,3.50000*%
%TA.AperFunction,ComponentPad*%
%ADD22C,1.60000*%
%ADD23R,1.60000X1.60000*%
G36*
X5321300Y9093200D02*
X2501900D01*
Y12725400D01*
X5321300D01*
Y9093200D01*
D02*
G37*
%LPC*%
G36*
X4041800Y12521933D02*
Y12446000D01*
X4117733D01*
X4111941Y12467614D01*
X4100238Y12487886D01*
X4083686Y12504438D01*
X4063414Y12516142D01*
X4041800Y12521933D01*
D02*
G37*
G36*
X4016400D02*
X3994786Y12516142D01*
X3974514Y12504438D01*
X3957962Y12487886D01*
X3946258Y12467614D01*
X3940467Y12446000D01*
X4016400D01*
Y12521933D01*
D02*
G37*
G36*
X4117733Y12420600D02*
X4041800D01*
Y12344667D01*
X4063414Y12350458D01*
X4083686Y12362162D01*
X4100238Y12378714D01*
X4111941Y12398986D01*
X4117733Y12420600D01*
D02*
G37*
G36*
X4016400D02*
X3940467D01*
X3946258Y12398986D01*
X3957962Y12378714D01*
X3974514Y12362162D01*
X3994786Y12350458D01*
X4016400Y12344667D01*
Y12420600D01*
D02*
G37*
G36*
X5092560Y12465200D02*
X5067440D01*
X5043177Y12458698D01*
X5021423Y12446139D01*
X5003661Y12428377D01*
X4997168Y12417130D01*
X4987997Y12411003D01*
X4760094Y12183100D01*
X4735924D01*
X4709117Y12175917D01*
X4685083Y12162041D01*
X4665459Y12142417D01*
X4651583Y12118383D01*
X4644400Y12091576D01*
Y12063824D01*
X4651583Y12037017D01*
X4665459Y12012983D01*
X4685083Y11993359D01*
X4709117Y11979483D01*
X4735924Y11972300D01*
X4763676D01*
X4790483Y11979483D01*
X4814517Y11993359D01*
X4834141Y12012983D01*
X4848017Y12037017D01*
X4855200Y12063824D01*
Y12091576D01*
X4850589Y12108783D01*
X5030200Y12288394D01*
X5043177Y12280902D01*
X5067440Y12274400D01*
X5092560D01*
X5116823Y12280902D01*
X5138577Y12293461D01*
X5156339Y12311223D01*
X5168898Y12332977D01*
X5175400Y12357240D01*
Y12382360D01*
X5168898Y12406623D01*
X5156339Y12428377D01*
X5138577Y12446139D01*
X5116823Y12458698D01*
X5092560Y12465200D01*
D02*
G37*
G36*
X3115520Y12661900D02*
X3082080D01*
X3049780Y12653245D01*
X3020820Y12636525D01*
X2997175Y12612880D01*
X2980455Y12583920D01*
X2971800Y12551620D01*
Y12518180D01*
X2980455Y12485880D01*
X2997175Y12456920D01*
X3020820Y12433275D01*
X3049780Y12416555D01*
X3082080Y12407900D01*
X3115520D01*
X3147820Y12416555D01*
X3176780Y12433275D01*
X3188738Y12445233D01*
X3379159D01*
X3746596Y12077796D01*
X3765166Y12063546D01*
X3786793Y12054588D01*
X3810000Y12051533D01*
X4154705D01*
X4177912Y12054588D01*
X4199538Y12063546D01*
X4218109Y12077796D01*
X4292504Y12152191D01*
X4306754Y12170762D01*
X4315712Y12192388D01*
X4318767Y12215595D01*
Y12433300D01*
X4318000Y12439127D01*
Y12445004D01*
X4316479Y12450681D01*
X4315712Y12456507D01*
X4313463Y12461937D01*
X4311942Y12467614D01*
X4309003Y12472705D01*
X4306754Y12478134D01*
X4303177Y12482795D01*
X4300238Y12487886D01*
X4296082Y12492042D01*
X4292504Y12496704D01*
X4287842Y12500282D01*
X4283686Y12504438D01*
X4278595Y12507377D01*
X4273934Y12510954D01*
X4268505Y12513203D01*
X4263414Y12516142D01*
X4257737Y12517663D01*
X4252307Y12519912D01*
X4246481Y12520679D01*
X4240804Y12522200D01*
X4234927D01*
X4229100Y12522967D01*
X4223273Y12522200D01*
X4217396D01*
X4211719Y12520679D01*
X4205893Y12519912D01*
X4200463Y12517663D01*
X4194786Y12516142D01*
X4189695Y12513203D01*
X4184266Y12510954D01*
X4179605Y12507377D01*
X4174514Y12504438D01*
X4170358Y12500282D01*
X4165696Y12496704D01*
X4162118Y12492042D01*
X4157962Y12487886D01*
X4155023Y12482795D01*
X4151446Y12478134D01*
X4149197Y12472705D01*
X4146258Y12467614D01*
X4144737Y12461937D01*
X4142488Y12456507D01*
X4141721Y12450681D01*
X4140200Y12445004D01*
Y12439127D01*
X4139433Y12433300D01*
Y12252736D01*
X4117564Y12230867D01*
X3847141D01*
X3479704Y12598304D01*
X3461134Y12612554D01*
X3439507Y12621512D01*
X3416300Y12624567D01*
X3188738D01*
X3176780Y12636525D01*
X3147820Y12653245D01*
X3115520Y12661900D01*
D02*
G37*
G36*
X2702560Y12291797D02*
X2672684Y12288855D01*
X2643957Y12280141D01*
X2617481Y12265989D01*
X2594275Y12246945D01*
X2575231Y12223739D01*
X2561079Y12197263D01*
X2552365Y12168536D01*
X2549423Y12138660D01*
Y11290460D01*
X2552365Y11260584D01*
X2561079Y11231857D01*
X2575231Y11205381D01*
X2594275Y11182176D01*
X2617481Y11163131D01*
X2643957Y11148979D01*
X2672684Y11140265D01*
X2702560Y11137323D01*
X2732436Y11140265D01*
X2761163Y11148979D01*
X2787639Y11163131D01*
X2810845Y11182176D01*
X2829889Y11205381D01*
X2844041Y11231857D01*
X2852755Y11260584D01*
X2855697Y11290460D01*
Y11886523D01*
X2867431Y11891384D01*
X2921707Y11837107D01*
X2940611Y11824476D01*
X2962910Y11820040D01*
X3588170D01*
X3610469Y11824476D01*
X3629373Y11837107D01*
X3659296Y11867030D01*
X3747337D01*
X3751059Y11860583D01*
X3770683Y11840959D01*
X3794717Y11827083D01*
X3821524Y11819900D01*
X3849276D01*
X3876083Y11827083D01*
X3900117Y11840959D01*
X3919741Y11860583D01*
X3933617Y11884617D01*
X3940800Y11911424D01*
Y11939176D01*
X3933617Y11965983D01*
X3919741Y11990017D01*
X3900117Y12009641D01*
X3876083Y12023517D01*
X3849276Y12030700D01*
X3821524D01*
X3794717Y12023517D01*
X3770683Y12009641D01*
X3751059Y11990017D01*
X3747337Y11983570D01*
X3635160D01*
X3612862Y11979134D01*
X3604406Y11973485D01*
X3594888Y11982399D01*
X3598145Y11988040D01*
X3606800Y12020340D01*
Y12053780D01*
X3598145Y12086080D01*
X3581425Y12115040D01*
X3557780Y12138685D01*
X3528820Y12155405D01*
X3496520Y12164060D01*
X3463080D01*
X3430780Y12155405D01*
X3401820Y12138685D01*
X3378175Y12115040D01*
X3361455Y12086080D01*
X3352800Y12053780D01*
Y12020340D01*
X3361455Y11988040D01*
X3378175Y11959080D01*
X3388942Y11948313D01*
X3384082Y11936580D01*
X2987046D01*
X2855697Y12067928D01*
Y12138660D01*
X2852755Y12168536D01*
X2844041Y12197263D01*
X2829889Y12223739D01*
X2810845Y12246945D01*
X2787639Y12265989D01*
X2761163Y12280141D01*
X2732436Y12288855D01*
X2702560Y12291797D01*
D02*
G37*
G36*
X4763676Y11929100D02*
X4735924D01*
X4709117Y11921917D01*
X4685083Y11908041D01*
X4665459Y11888417D01*
X4651583Y11864383D01*
X4644400Y11837576D01*
Y11809824D01*
X4651583Y11783017D01*
X4665459Y11758983D01*
X4685083Y11739359D01*
X4709117Y11725483D01*
X4735924Y11718300D01*
X4763676D01*
X4790483Y11725483D01*
X4814517Y11739359D01*
X4834141Y11758983D01*
X4848017Y11783017D01*
X4855200Y11809824D01*
Y11837576D01*
X4848017Y11864383D01*
X4834141Y11888417D01*
X4814517Y11908041D01*
X4790483Y11921917D01*
X4763676Y11929100D01*
D02*
G37*
G36*
X5092700Y11703162D02*
Y11620500D01*
X5175362D01*
X5168898Y11644623D01*
X5156339Y11666377D01*
X5138577Y11684139D01*
X5116823Y11696698D01*
X5092700Y11703162D01*
D02*
G37*
G36*
X5067300D02*
X5043177Y11696698D01*
X5021423Y11684139D01*
X5003661Y11666377D01*
X4991102Y11644623D01*
X4984638Y11620500D01*
X5067300D01*
Y11703162D01*
D02*
G37*
G36*
X4584700Y11652362D02*
Y11569700D01*
X4667362D01*
X4660898Y11593823D01*
X4648339Y11615577D01*
X4630577Y11633339D01*
X4608823Y11645898D01*
X4584700Y11652362D01*
D02*
G37*
G36*
X4559300D02*
X4535177Y11645898D01*
X4513423Y11633339D01*
X4495661Y11615577D01*
X4483102Y11593823D01*
X4476638Y11569700D01*
X4559300D01*
Y11652362D01*
D02*
G37*
G36*
X5175362Y11595100D02*
X5092700D01*
Y11512438D01*
X5116823Y11518902D01*
X5138577Y11531461D01*
X5156339Y11549223D01*
X5168898Y11570977D01*
X5175362Y11595100D01*
D02*
G37*
G36*
X5067300D02*
X4984638D01*
X4991102Y11570977D01*
X5003661Y11549223D01*
X5021423Y11531461D01*
X5043177Y11518902D01*
X5067300Y11512438D01*
Y11595100D01*
D02*
G37*
G36*
X3568700Y11563462D02*
Y11480800D01*
X3651362D01*
X3644898Y11504923D01*
X3632339Y11526677D01*
X3614577Y11544439D01*
X3592823Y11556998D01*
X3568700Y11563462D01*
D02*
G37*
G36*
X3543300D02*
X3519177Y11556998D01*
X3497423Y11544439D01*
X3479661Y11526677D01*
X3467102Y11504923D01*
X3460638Y11480800D01*
X3543300D01*
Y11563462D01*
D02*
G37*
G36*
X4667362Y11544300D02*
X4584700D01*
Y11461638D01*
X4608823Y11468102D01*
X4630577Y11480661D01*
X4648339Y11498423D01*
X4660898Y11520177D01*
X4667362Y11544300D01*
D02*
G37*
G36*
X4559300D02*
X4476638D01*
X4483102Y11520177D01*
X4495661Y11498423D01*
X4513423Y11480661D01*
X4535177Y11468102D01*
X4559300Y11461638D01*
Y11544300D01*
D02*
G37*
G36*
X3651362Y11455400D02*
X3568700D01*
Y11372738D01*
X3592823Y11379202D01*
X3614577Y11391761D01*
X3632339Y11409523D01*
X3644898Y11431277D01*
X3651362Y11455400D01*
D02*
G37*
G36*
X3543300D02*
X3460638D01*
X3467102Y11431277D01*
X3479661Y11409523D01*
X3497423Y11391761D01*
X3519177Y11379202D01*
X3543300Y11372738D01*
Y11455400D01*
D02*
G37*
G36*
X4103276Y12030700D02*
X4075524D01*
X4048717Y12023517D01*
X4024683Y12009641D01*
X4005059Y11990017D01*
X3991183Y11965983D01*
X3984000Y11939176D01*
Y11911424D01*
X3991183Y11884617D01*
X4005059Y11860583D01*
X4024683Y11840959D01*
X4048717Y11827083D01*
X4075524Y11819900D01*
X4103276D01*
X4110467Y11821827D01*
X4259730Y11672564D01*
Y11544616D01*
X4259423Y11544439D01*
X4241661Y11526677D01*
X4229102Y11504923D01*
X4222600Y11480660D01*
Y11455540D01*
X4229102Y11431277D01*
X4241661Y11409523D01*
X4259423Y11391761D01*
X4281177Y11379202D01*
X4305440Y11372700D01*
X4330560D01*
X4354823Y11379202D01*
X4376577Y11391761D01*
X4394339Y11409523D01*
X4406898Y11431277D01*
X4413400Y11455540D01*
Y11480660D01*
X4406898Y11504923D01*
X4394339Y11526677D01*
X4376577Y11544439D01*
X4376270Y11544616D01*
Y11696700D01*
X4371834Y11718999D01*
X4359203Y11737903D01*
X4192873Y11904233D01*
X4194800Y11911424D01*
Y11939176D01*
X4187617Y11965983D01*
X4173741Y11990017D01*
X4154117Y12009641D01*
X4130083Y12023517D01*
X4103276Y12030700D01*
D02*
G37*
G36*
X3683001Y11366374D02*
Y11286300D01*
X3763075D01*
X3756870Y11309458D01*
X3744639Y11330642D01*
X3727343Y11347938D01*
X3706158Y11360169D01*
X3683001Y11366374D01*
D02*
G37*
G36*
X3657601D02*
X3634443Y11360169D01*
X3613258Y11347938D01*
X3595962Y11330642D01*
X3583731Y11309458D01*
X3577526Y11286300D01*
X3657601D01*
Y11366374D01*
D02*
G37*
G36*
X4972738Y11439900D02*
X4965700D01*
Y11252200D01*
X5153400D01*
Y11259238D01*
X5145699Y11297955D01*
X5130592Y11334425D01*
X5108661Y11367248D01*
X5080748Y11395161D01*
X5047925Y11417092D01*
X5011455Y11432199D01*
X4972738Y11439900D01*
D02*
G37*
G36*
X4940300D02*
X4933262D01*
X4894545Y11432199D01*
X4858075Y11417092D01*
X4825252Y11395161D01*
X4797339Y11367248D01*
X4775408Y11334425D01*
X4760301Y11297955D01*
X4752600Y11259238D01*
Y11252200D01*
X4940300D01*
Y11439900D01*
D02*
G37*
G36*
X3763075Y11260900D02*
X3683001D01*
Y11180826D01*
X3706158Y11187031D01*
X3727343Y11199262D01*
X3744639Y11216558D01*
X3756870Y11237742D01*
X3763075Y11260900D01*
D02*
G37*
G36*
X3657601D02*
X3577526D01*
X3583731Y11237742D01*
X3595962Y11216558D01*
X3613258Y11199262D01*
X3634443Y11187031D01*
X3657601Y11180826D01*
Y11260900D01*
D02*
G37*
G36*
X5153400Y11226800D02*
X4965700D01*
Y11039100D01*
X4972738D01*
X5011455Y11046801D01*
X5047925Y11061908D01*
X5080748Y11083839D01*
X5108661Y11111752D01*
X5130592Y11144575D01*
X5145699Y11181045D01*
X5153400Y11219762D01*
Y11226800D01*
D02*
G37*
G36*
X4940300D02*
X4752600D01*
Y11219762D01*
X4760301Y11181045D01*
X4775408Y11144575D01*
X4797339Y11111752D01*
X4825252Y11083839D01*
X4858075Y11061908D01*
X4894545Y11046801D01*
X4933262Y11039100D01*
X4940300D01*
Y11226800D01*
D02*
G37*
G36*
X3204200Y11129000D02*
X3111500D01*
Y11036300D01*
X3204200D01*
Y11129000D01*
D02*
G37*
G36*
X3086100D02*
X2993400D01*
Y11036300D01*
X3086100D01*
Y11129000D01*
D02*
G37*
G36*
X3204200Y11010900D02*
X3111500D01*
Y10918200D01*
X3204200D01*
Y11010900D01*
D02*
G37*
G36*
X3086100D02*
X2993400D01*
Y10918200D01*
X3086100D01*
Y11010900D01*
D02*
G37*
G36*
X4255676Y11103600D02*
X4227924D01*
X4201117Y11096417D01*
X4177083Y11082541D01*
X4157459Y11062917D01*
X4143583Y11038883D01*
X4136400Y11012076D01*
Y10984324D01*
X4143583Y10957517D01*
X4157459Y10933483D01*
X4177083Y10913859D01*
X4201117Y10899983D01*
X4205436Y10898826D01*
X4242929Y10861333D01*
X4238068Y10849600D01*
X4227924D01*
X4201117Y10842417D01*
X4177083Y10828541D01*
X4157459Y10808917D01*
X4143583Y10784883D01*
X4136400Y10758076D01*
Y10756900D01*
X4241800D01*
Y10731500D01*
X4136400D01*
Y10730324D01*
X4143583Y10703517D01*
X4157459Y10679483D01*
X4177083Y10659859D01*
X4183702Y10656037D01*
X4180299Y10643337D01*
X4161181D01*
X3922634Y10881885D01*
X3899428Y10900929D01*
X3872953Y10915081D01*
X3844225Y10923795D01*
X3814350Y10926737D01*
X3431465D01*
X3431463Y10926738D01*
X3401587Y10923795D01*
X3372860Y10915081D01*
X3346384Y10900929D01*
X3323178Y10881885D01*
X3215933Y10774639D01*
X3204200Y10779500D01*
Y10783476D01*
X3197017Y10810283D01*
X3183141Y10834317D01*
X3163517Y10853941D01*
X3139483Y10867817D01*
X3112676Y10875000D01*
X3084924D01*
X3058117Y10867817D01*
X3034083Y10853941D01*
X3014459Y10834317D01*
X3000583Y10810283D01*
X2993400Y10783476D01*
Y10755724D01*
X3000583Y10728917D01*
X3014459Y10704883D01*
X3034083Y10685259D01*
X3053115Y10674271D01*
X3051533Y10660519D01*
X3040197Y10657081D01*
X3013721Y10642929D01*
X2990515Y10623885D01*
X2990514Y10623883D01*
X2781368Y10414737D01*
X2689700D01*
X2659824Y10411795D01*
X2631097Y10403081D01*
X2604621Y10388929D01*
X2581415Y10369885D01*
X2562371Y10346679D01*
X2548219Y10320203D01*
X2539505Y10291476D01*
X2536563Y10261600D01*
X2539505Y10231724D01*
X2548219Y10202997D01*
X2562371Y10176521D01*
X2581415Y10153315D01*
X2604621Y10134271D01*
X2631097Y10120119D01*
X2659824Y10111405D01*
X2689700Y10108463D01*
X2844800D01*
X2874676Y10111405D01*
X2903403Y10120119D01*
X2929879Y10134271D01*
X2953085Y10153315D01*
X3162231Y10362463D01*
X3173463D01*
X3203339Y10365405D01*
X3232066Y10374119D01*
X3258541Y10388271D01*
X3281747Y10407315D01*
X3494894Y10620463D01*
X3741786D01*
X3743965Y10617200D01*
X3737177Y10604500D01*
X3577401D01*
Y10418700D01*
X3763200D01*
Y10590220D01*
X3775901Y10595480D01*
X3926061Y10445320D01*
X3778196Y10297454D01*
X3763946Y10278884D01*
X3754988Y10257258D01*
X3751933Y10234050D01*
Y10079308D01*
X3739233Y10074047D01*
X3727342Y10085938D01*
X3706157Y10098169D01*
X3682999Y10104374D01*
Y10011600D01*
Y9918826D01*
X3706157Y9925031D01*
X3727342Y9937262D01*
X3739233Y9949153D01*
X3751933Y9943892D01*
Y9837544D01*
X3739233Y9832283D01*
X3728877Y9842639D01*
X3707123Y9855198D01*
X3682860Y9861700D01*
X3657740D01*
X3633477Y9855198D01*
X3611723Y9842639D01*
X3593961Y9824877D01*
X3581402Y9803123D01*
X3574900Y9778860D01*
Y9753740D01*
X3581402Y9729477D01*
X3593961Y9707723D01*
X3611723Y9689961D01*
X3633477Y9677402D01*
X3657740Y9670900D01*
X3682860D01*
X3695577Y9674308D01*
X3700111Y9672154D01*
X3707633Y9664390D01*
Y9346972D01*
X3703742Y9340233D01*
X3696900Y9314698D01*
Y9288262D01*
X3703742Y9262727D01*
X3716960Y9239833D01*
X3735653Y9221140D01*
X3758547Y9207922D01*
X3784082Y9201080D01*
X3810518D01*
X3836053Y9207922D01*
X3858947Y9221140D01*
X3877640Y9239833D01*
X3890858Y9262727D01*
X3897700Y9288262D01*
Y9314698D01*
X3890858Y9340233D01*
X3886967Y9346972D01*
Y9631440D01*
X3905004Y9649477D01*
X3919254Y9668048D01*
X3920498Y9671052D01*
X3932954Y9673530D01*
X3941923Y9664561D01*
X3963677Y9652002D01*
X3987940Y9645500D01*
X4013060D01*
X4037323Y9652002D01*
X4059077Y9664561D01*
X4076839Y9682323D01*
X4089398Y9704077D01*
X4095900Y9728340D01*
Y9753460D01*
X4089398Y9777723D01*
X4076839Y9799477D01*
X4059077Y9817239D01*
X4037323Y9829798D01*
X4013060Y9836300D01*
X3987940D01*
X3963677Y9829798D01*
X3943967Y9818419D01*
X3931267Y9822626D01*
Y10196909D01*
X4073781Y10339423D01*
X4097750Y10337063D01*
X4241800D01*
X4271676Y10340005D01*
X4300403Y10348719D01*
X4326879Y10362871D01*
X4350085Y10381915D01*
X4369129Y10405121D01*
X4383281Y10431597D01*
X4391995Y10460324D01*
X4394937Y10490200D01*
X4394012Y10499597D01*
X4405493Y10505028D01*
X4465833Y10444687D01*
Y10291065D01*
Y10163800D01*
X4468888Y10140593D01*
X4477846Y10118967D01*
X4492096Y10100396D01*
X4787996Y9804496D01*
X4806566Y9790246D01*
X4828193Y9781288D01*
X4851400Y9778233D01*
X4924345D01*
Y9765571D01*
X4921100Y9753460D01*
Y9728340D01*
X4927602Y9704077D01*
X4940161Y9682323D01*
X4957923Y9664561D01*
X4979677Y9652002D01*
X5003940Y9645500D01*
X5029060D01*
X5053323Y9652002D01*
X5075077Y9664561D01*
X5092839Y9682323D01*
X5105398Y9704077D01*
X5111900Y9728340D01*
Y9753460D01*
X5105398Y9777723D01*
X5103680Y9780700D01*
Y9832287D01*
X5100624Y9855495D01*
X5091666Y9877121D01*
X5077417Y9895692D01*
X5041804Y9931304D01*
X5023234Y9945554D01*
X5001607Y9954512D01*
X4978400Y9957567D01*
X4888541D01*
X4682975Y10163134D01*
X4689549Y10174520D01*
X4710524Y10168900D01*
X4738276D01*
X4765083Y10176083D01*
X4789117Y10189959D01*
X4808741Y10209583D01*
X4822617Y10233617D01*
X4829800Y10260424D01*
Y10288176D01*
X4822617Y10314983D01*
X4808741Y10339017D01*
X4789117Y10358641D01*
X4765083Y10372517D01*
X4738276Y10379700D01*
X4710524D01*
X4683717Y10372517D01*
X4659683Y10358641D01*
X4656900Y10355858D01*
X4645167Y10360719D01*
Y10441881D01*
X4656900Y10446742D01*
X4659683Y10443959D01*
X4683717Y10430083D01*
X4710524Y10422900D01*
X4738276D01*
X4765083Y10430083D01*
X4789117Y10443959D01*
X4808741Y10463583D01*
X4822617Y10487617D01*
X4829800Y10514424D01*
Y10542176D01*
X4822617Y10568983D01*
X4808741Y10593017D01*
X4789117Y10612641D01*
X4765083Y10626517D01*
X4738276Y10633700D01*
X4710524D01*
X4703333Y10631773D01*
X4644907Y10690199D01*
Y10732991D01*
X4648339Y10736423D01*
X4660898Y10758177D01*
X4667400Y10782440D01*
Y10807560D01*
X4660898Y10831823D01*
X4648339Y10853577D01*
X4630577Y10871339D01*
X4608823Y10883898D01*
X4584560Y10890400D01*
X4559440D01*
X4535177Y10883898D01*
X4513423Y10871339D01*
X4504614Y10862530D01*
X4497884Y10862663D01*
X4489092Y10864969D01*
X4476504Y10881375D01*
X4347200Y11010679D01*
Y11012076D01*
X4340017Y11038883D01*
X4326141Y11062917D01*
X4306517Y11082541D01*
X4282483Y11096417D01*
X4255676Y11103600D01*
D02*
G37*
G36*
X3657599Y10104374D02*
X3634442Y10098169D01*
X3613257Y10085938D01*
X3595961Y10068642D01*
X3583730Y10047458D01*
X3577525Y10024300D01*
X3657599D01*
Y10104374D01*
D02*
G37*
G36*
Y9998900D02*
X3577525D01*
X3583730Y9975742D01*
X3595961Y9954558D01*
X3613257Y9937262D01*
X3634442Y9925031D01*
X3657599Y9918826D01*
Y9998900D01*
D02*
G37*
G36*
X2666860Y9861700D02*
X2641740D01*
X2617477Y9855198D01*
X2595723Y9842639D01*
X2577961Y9824877D01*
X2565402Y9803123D01*
X2558900Y9778860D01*
Y9753740D01*
X2565402Y9729477D01*
X2577961Y9707723D01*
X2595723Y9689961D01*
X2617477Y9677402D01*
X2641740Y9670900D01*
X2666860D01*
X2691123Y9677402D01*
X2712877Y9689961D01*
X2730639Y9707723D01*
X2743198Y9729477D01*
X2749700Y9753740D01*
Y9778860D01*
X2743198Y9803123D01*
X2730639Y9824877D01*
X2712877Y9842639D01*
X2691123Y9855198D01*
X2666860Y9861700D01*
D02*
G37*
G36*
X4972738Y9547600D02*
X4965700D01*
Y9359900D01*
X5153400D01*
Y9366938D01*
X5145699Y9405655D01*
X5130592Y9442125D01*
X5108661Y9474948D01*
X5080748Y9502861D01*
X5047925Y9524792D01*
X5011455Y9539899D01*
X4972738Y9547600D01*
D02*
G37*
G36*
X4940300D02*
X4933262D01*
X4894545Y9539899D01*
X4858075Y9524792D01*
X4825252Y9502861D01*
X4797339Y9474948D01*
X4775408Y9442125D01*
X4760301Y9405655D01*
X4752600Y9366938D01*
Y9359900D01*
X4940300D01*
Y9547600D01*
D02*
G37*
G36*
X2775638D02*
X2768600D01*
Y9359900D01*
X2956300D01*
Y9366938D01*
X2948599Y9405655D01*
X2933492Y9442125D01*
X2911561Y9474948D01*
X2883648Y9502861D01*
X2850825Y9524792D01*
X2814355Y9539899D01*
X2775638Y9547600D01*
D02*
G37*
G36*
X2743200D02*
X2736162D01*
X2697445Y9539899D01*
X2660975Y9524792D01*
X2628152Y9502861D01*
X2600239Y9474948D01*
X2578308Y9442125D01*
X2563201Y9405655D01*
X2555500Y9366938D01*
Y9359900D01*
X2743200D01*
Y9547600D01*
D02*
G37*
G36*
X4064518Y9401880D02*
X4064000D01*
Y9314180D01*
X4151700D01*
Y9314698D01*
X4144858Y9340233D01*
X4131640Y9363127D01*
X4112947Y9381820D01*
X4090053Y9395038D01*
X4064518Y9401880D01*
D02*
G37*
G36*
X4038600D02*
X4038082D01*
X4012547Y9395038D01*
X3989653Y9381820D01*
X3970960Y9363127D01*
X3957742Y9340233D01*
X3950900Y9314698D01*
Y9314180D01*
X4038600D01*
Y9401880D01*
D02*
G37*
G36*
X4405700D02*
X4204900D01*
Y9201080D01*
X4405700D01*
Y9401880D01*
D02*
G37*
G36*
X4151700Y9288780D02*
X4064000D01*
Y9201080D01*
X4064518D01*
X4090053Y9207922D01*
X4112947Y9221140D01*
X4131640Y9239833D01*
X4144858Y9262727D01*
X4151700Y9288262D01*
Y9288780D01*
D02*
G37*
G36*
X4038600D02*
X3950900D01*
Y9288262D01*
X3957742Y9262727D01*
X3970960Y9239833D01*
X3989653Y9221140D01*
X4012547Y9207922D01*
X4038082Y9201080D01*
X4038600D01*
Y9288780D01*
D02*
G37*
G36*
X3556518Y9401880D02*
X3530082D01*
X3504547Y9395038D01*
X3481653Y9381820D01*
X3462960Y9363127D01*
X3449742Y9340233D01*
X3442900Y9314698D01*
Y9288262D01*
X3449742Y9262727D01*
X3462960Y9239833D01*
X3481653Y9221140D01*
X3504547Y9207922D01*
X3530082Y9201080D01*
X3556518D01*
X3582053Y9207922D01*
X3604947Y9221140D01*
X3623640Y9239833D01*
X3636858Y9262727D01*
X3643700Y9288262D01*
Y9314698D01*
X3636858Y9340233D01*
X3623640Y9363127D01*
X3604947Y9381820D01*
X3582053Y9395038D01*
X3556518Y9401880D01*
D02*
G37*
G36*
X5153400Y9334500D02*
X4965700D01*
Y9146800D01*
X4972738D01*
X5011455Y9154501D01*
X5047925Y9169608D01*
X5080748Y9191539D01*
X5108661Y9219452D01*
X5130592Y9252275D01*
X5145699Y9288745D01*
X5153400Y9327462D01*
Y9334500D01*
D02*
G37*
G36*
X4940300D02*
X4752600D01*
Y9327462D01*
X4760301Y9288745D01*
X4775408Y9252275D01*
X4797339Y9219452D01*
X4825252Y9191539D01*
X4858075Y9169608D01*
X4894545Y9154501D01*
X4933262Y9146800D01*
X4940300D01*
Y9334500D01*
D02*
G37*
G36*
X2956300D02*
X2768600D01*
Y9146800D01*
X2775638D01*
X2814355Y9154501D01*
X2850825Y9169608D01*
X2883648Y9191539D01*
X2911561Y9219452D01*
X2933492Y9252275D01*
X2948599Y9288745D01*
X2956300Y9327462D01*
Y9334500D01*
D02*
G37*
G36*
X2743200D02*
X2555500D01*
Y9327462D01*
X2563201Y9288745D01*
X2578308Y9252275D01*
X2600239Y9219452D01*
X2628152Y9191539D01*
X2660975Y9169608D01*
X2697445Y9154501D01*
X2736162Y9146800D01*
X2743200D01*
Y9334500D01*
D02*
G37*
%LPD*%
D10*
X3098800Y12534900D02*
X3416300D01*
X4229100Y12215595D02*
Y12433300D01*
X4154705Y12141200D02*
X4229100Y12215595D01*
X3810000Y12141200D02*
X4154705D01*
X3416300Y12534900D02*
X3810000Y12141200D01*
X5014013Y9743387D02*
Y9832287D01*
X4978400Y9867900D02*
X5014013Y9832287D01*
X4851400Y9867900D02*
X4978400D01*
X4555500Y10163800D02*
X4851400Y9867900D01*
X3797300Y9301480D02*
Y9668581D01*
X3841600Y9712881D01*
Y10234050D01*
X4097750Y10490200D01*
X4555500Y10163800D02*
Y10291065D01*
X5014013Y9743387D02*
X5016500Y9740900D01*
X4555500Y10291065D02*
Y10481829D01*
X4413100Y10624229D02*
X4555500Y10481829D01*
X4413100Y10624229D02*
Y10817970D01*
X4241800Y10989270D02*
X4413100Y10817970D01*
X4241800Y10989270D02*
Y10998200D01*
D11*
X5029200Y12369800D02*
X5080000D01*
X4572264Y10274300D02*
X4724400D01*
X4555500Y10291065D02*
X4572264Y10274300D01*
X4586638Y10666062D02*
X4724400Y10528300D01*
X4586638Y10666062D02*
Y10780362D01*
X4572000Y10795000D02*
X4586638Y10780362D01*
X4749800Y12077700D02*
Y12090400D01*
X5029200Y12369800D01*
X4089400Y11925300D02*
X4318000Y11696700D01*
Y11468100D02*
Y11696700D01*
X3635160Y11925300D02*
X3835400D01*
X3588170Y11878310D02*
X3635160Y11925300D01*
X2962910Y11878310D02*
X3588170D01*
X2702560Y12138660D02*
X2962910Y11878310D01*
D12*
X2689700Y10261600D02*
X2844800D01*
X3098800Y10515600D01*
X3173463D01*
X3431463Y10773600D01*
X3670299D01*
X4097750Y10490200D02*
X4241800D01*
X3814350Y10773600D02*
X4097750Y10490200D01*
X3670299Y10773600D02*
X3814350D01*
X2702560Y11290460D02*
Y12138660D01*
D13*
D03*
X3479800Y12037060D02*
D03*
X3098800Y12534900D02*
D03*
D14*
X4029100Y12433300D02*
D03*
X4229100D02*
D03*
D15*
X3670301Y10511600D02*
D03*
X3670299Y10773600D02*
D03*
D16*
Y10011600D02*
D03*
X3670301Y11273600D02*
D03*
D17*
X4305300Y9301480D02*
D03*
D18*
X4051300D02*
D03*
X3797300D02*
D03*
X3543300D02*
D03*
D19*
X5016500Y9740900D02*
D03*
X4000500D02*
D03*
X2654300Y9766300D02*
D03*
X3670300D02*
D03*
X4572000Y10795000D02*
D03*
Y11557000D02*
D03*
X4318000Y11468100D02*
D03*
X3556000D02*
D03*
X2689700Y10261600D02*
D03*
Y11277600D02*
D03*
X5080000Y12369800D02*
D03*
Y11607800D02*
D03*
D20*
X4724400Y10274300D02*
D03*
Y10528300D02*
D03*
X4749800Y11823700D02*
D03*
Y12077700D02*
D03*
X4089400Y11925300D02*
D03*
X3835400D02*
D03*
D21*
X2755900Y9347200D02*
D03*
X4953000D02*
D03*
Y11239500D02*
D03*
D22*
X4241800Y10998200D02*
D03*
Y10744200D02*
D03*
X3098800Y10515600D02*
D03*
Y10769600D02*
D03*
D23*
X4241800Y10490200D02*
D03*
X3098800Y11023600D02*
D03*
%TF.MD5,4f8fecd8a3ba36876e2a909ffeda8b9a*%
M02*
