G04*
G04 #@! TF.GenerationSoftware,Altium Limited,Altium Designer,23.7.1 (13)*
G04*
G04 Layer_Color=2752767*
%FSLAX25Y25*%
%MOIN*%
G70*
G04*
G04 #@! TF.SameCoordinates,91BF953A-AACC-4089-9385-47863D4E8686*
G04*
G04*
G04 #@! TF.FilePolarity,Positive*
G04*
G01*
G75*
%ADD16C,0.00500*%
%ADD43C,0.00667*%
D16*
X144500Y411842D02*
X145500Y412843D01*
X146500D01*
X145500Y413842D01*
X146500Y414843D01*
X145500D01*
X144500Y415842D01*
X143500Y414843D01*
X142500D01*
X143500Y413842D01*
X142500Y412843D01*
X143500D01*
X144500Y411842D01*
X144500Y392158D02*
X145500Y393158D01*
X146500D01*
X145500Y394158D01*
X146500Y395158D01*
X145500D01*
X144500Y396158D01*
X143500Y395158D01*
X142500D01*
X143500Y394158D01*
X142500Y393158D01*
X143500D01*
X144500Y392158D01*
Y422157D02*
X145500Y423158D01*
X146500D01*
X145500Y424157D01*
X146500Y425157D01*
X145500D01*
X144500Y426158D01*
X143500Y425157D01*
X142500D01*
X143500Y424157D01*
X142500Y423158D01*
X143500D01*
X144500Y422157D01*
X144500Y441843D02*
X145500Y442842D01*
X146500D01*
X145500Y443843D01*
X146500Y444842D01*
X145500D01*
X144500Y445843D01*
X143500Y444842D01*
X142500D01*
X143500Y443843D01*
X142500Y442842D01*
X143500D01*
X144500Y441843D01*
X168500Y365200D02*
Y364200D01*
X170500D01*
Y365200D01*
X171500D01*
Y367200D01*
X170500D01*
Y368200D01*
X168500D01*
Y367200D01*
X167500D01*
Y365200D01*
X168500D01*
X158500D02*
Y364200D01*
X160500D01*
Y365200D01*
X161500D01*
Y367200D01*
X160500D01*
Y368200D01*
X158500D01*
Y367200D01*
X157500D01*
Y365200D01*
X158500D01*
X148500D02*
Y364200D01*
X150500D01*
Y365200D01*
X151500D01*
Y367200D01*
X150500D01*
Y368200D01*
X148500D01*
Y367200D01*
X147500D01*
Y365200D01*
X148500D01*
X138500D02*
Y364200D01*
X140500D01*
Y365200D01*
X141500D01*
Y367200D01*
X140500D01*
Y368200D01*
X138500D01*
Y367200D01*
X137500D01*
Y365200D01*
X138500D01*
X195500Y381500D02*
X196500Y383500D01*
X195500Y385500D01*
X197500Y384500D01*
X199500Y385500D01*
X198500Y383500D01*
X199500Y381500D01*
X197500Y382500D01*
X195500Y381500D01*
X155500D02*
X156500Y383500D01*
X155500Y385500D01*
X157500Y384500D01*
X159500Y385500D01*
X158500Y383500D01*
X159500Y381500D01*
X157500Y382500D01*
X155500Y381500D01*
X186000Y402500D02*
X187000Y403500D01*
X188000D01*
X187000Y404500D01*
X188000Y405500D01*
X187000D01*
X186000Y406500D01*
X185000Y405500D01*
X184000D01*
X185000Y404500D01*
X184000Y403500D01*
X185000D01*
X186000Y402500D01*
Y412500D02*
X187000Y413500D01*
X188000D01*
X187000Y414500D01*
X188000Y415500D01*
X187000D01*
X186000Y416500D01*
X185000Y415500D01*
X184000D01*
X185000Y414500D01*
X184000Y413500D01*
X185000D01*
X186000Y412500D01*
X120000Y491500D02*
Y495500D01*
X124000D01*
Y491500D01*
X120000D01*
X135000Y471900D02*
Y475900D01*
X139000D01*
Y471900D01*
X135000D01*
X104400Y475900D02*
Y479900D01*
X108400D01*
Y475900D01*
X104400D01*
X187000Y463500D02*
X188000Y464500D01*
X189000D01*
X188000Y465500D01*
X189000Y466500D01*
X188000D01*
X187000Y467500D01*
X186000Y466500D01*
X185000D01*
X186000Y465500D01*
X185000Y464500D01*
X186000D01*
X187000Y463500D01*
Y473500D02*
X188000Y474500D01*
X189000D01*
X188000Y475500D01*
X189000Y476500D01*
X188000D01*
X187000Y477500D01*
X186000Y476500D01*
X185000D01*
X186000Y475500D01*
X185000Y474500D01*
X186000D01*
X187000Y473500D01*
X102500Y382500D02*
X103500Y384500D01*
X102500Y386500D01*
X104500Y385500D01*
X106500Y386500D01*
X105500Y384500D01*
X106500Y382500D01*
X104500Y383500D01*
X102500Y382500D01*
X142500D02*
X143500Y384500D01*
X142500Y386500D01*
X144500Y385500D01*
X146500Y386500D01*
X145500Y384500D01*
X146500Y382500D01*
X144500Y383500D01*
X142500Y382500D01*
X106500Y366000D02*
X107500D01*
X108500Y367000D01*
X109500Y366000D01*
X110500D01*
Y367000D01*
X109500Y368000D01*
X110500Y369000D01*
Y370000D01*
X109500D01*
X108500Y369000D01*
X107500Y370000D01*
X106500D01*
Y369000D01*
X107500Y368000D01*
X106500Y367000D01*
Y366000D01*
X193000D02*
X194000D01*
X195000Y367000D01*
X196000Y366000D01*
X197000D01*
Y367000D01*
X196000Y368000D01*
X197000Y369000D01*
Y370000D01*
X196000D01*
X195000Y369000D01*
X194000Y370000D01*
X193000D01*
Y369000D01*
X194000Y368000D01*
X193000Y367000D01*
Y366000D01*
Y440500D02*
X194000D01*
X195000Y441500D01*
X196000Y440500D01*
X197000D01*
Y441500D01*
X196000Y442500D01*
X197000Y443500D01*
Y444500D01*
X196000D01*
X195000Y443500D01*
X194000Y444500D01*
X193000D01*
Y443500D01*
X194000Y442500D01*
X193000Y441500D01*
Y440500D01*
X178000Y423000D02*
X179000Y425000D01*
X178000Y427000D01*
X180000Y426000D01*
X182000Y427000D01*
X181000Y425000D01*
X182000Y423000D01*
X180000Y424000D01*
X178000Y423000D01*
Y453000D02*
X179000Y455000D01*
X178000Y457000D01*
X180000Y456000D01*
X182000Y457000D01*
X181000Y455000D01*
X182000Y453000D01*
X180000Y454000D01*
X178000Y453000D01*
X161000Y467500D02*
X162000Y468500D01*
X163000D01*
X162000Y469500D01*
X163000Y470500D01*
X162000D01*
X161000Y471500D01*
X160000Y470500D01*
X159000D01*
X160000Y469500D01*
X159000Y468500D01*
X160000D01*
X161000Y467500D01*
X151000D02*
X152000Y468500D01*
X153000D01*
X152000Y469500D01*
X153000Y470500D01*
X152000D01*
X151000Y471500D01*
X150000Y470500D01*
X149000D01*
X150000Y469500D01*
X149000Y468500D01*
X150000D01*
X151000Y467500D01*
X168000Y449500D02*
X169000Y451500D01*
X168000Y453500D01*
X170000Y452500D01*
X172000Y453500D01*
X171000Y451500D01*
X172000Y449500D01*
X170000Y450500D01*
X168000Y449500D01*
X138000D02*
X139000Y451500D01*
X138000Y453500D01*
X140000Y452500D01*
X142000Y453500D01*
X141000Y451500D01*
X142000Y449500D01*
X140000Y450500D01*
X138000Y449500D01*
X159126Y488000D02*
X157126Y492000D01*
X161126D01*
X159126Y488000D01*
X167000D02*
X165000Y492000D01*
X169000D01*
X167000Y488000D01*
X103894Y402000D02*
X104894Y404000D01*
X103894Y406000D01*
X105894Y405000D01*
X107894Y406000D01*
X106894Y404000D01*
X107894Y402000D01*
X105894Y403000D01*
X103894Y402000D01*
Y442000D02*
X104894Y444000D01*
X103894Y446000D01*
X105894Y445000D01*
X107894Y446000D01*
X106894Y444000D01*
X107894Y442000D01*
X105894Y443000D01*
X103894Y442000D01*
X195000Y484500D02*
X196000Y486500D01*
X195000Y488500D01*
X197000Y487500D01*
X199000Y488500D01*
X198000Y486500D01*
X199000Y484500D01*
X197000Y485500D01*
X195000Y484500D01*
Y454500D02*
X196000Y456500D01*
X195000Y458500D01*
X197000Y457500D01*
X199000Y458500D01*
X198000Y456500D01*
X199000Y454500D01*
X197000Y455500D01*
X195000Y454500D01*
D43*
X169000Y433000D02*
G03*
X169000Y433000I-2000J0D01*
G01*
Y423000D02*
G03*
X169000Y423000I-2000J0D01*
G01*
Y413000D02*
G03*
X169000Y413000I-2000J0D01*
G01*
X124000Y414000D02*
G03*
X124000Y414000I-2000J0D01*
G01*
Y424000D02*
G03*
X124000Y424000I-2000J0D01*
G01*
Y434000D02*
G03*
X124000Y434000I-2000J0D01*
G01*
M02*
